<svg width="32" height="32" viewBox="0 0 32 32" fill="none" xmlns="http://www.w3.org/2000/svg">
<path d="M8.72482 6.66689C8.618 6.5579 8.49075 6.47103 8.35035 6.41123C8.20994 6.35144 8.05913 6.3199 7.90653 6.31841C7.75394 6.31693 7.60254 6.34553 7.461 6.40257C7.31945 6.45962 7.19054 6.544 7.08162 6.65089C5.84989 7.87608 4.87279 9.3329 4.2066 10.9374C3.54042 12.5419 3.19832 14.2624 3.20002 15.9997C3.19821 17.8037 3.5671 19.5888 4.28381 21.2443C5.00051 22.8999 6.04975 24.3905 7.36642 25.6237C7.58805 25.8286 7.88081 25.939 8.18253 25.9315C8.48426 25.9241 8.77119 25.7993 8.98242 25.5837C9.48802 25.0781 9.42562 24.2733 8.93922 23.8077C7.88242 22.8005 7.04144 21.589 6.46741 20.2468C5.89337 18.9045 5.59826 17.4595 5.60002 15.9997C5.60002 13.0461 6.78562 10.3677 8.70882 8.41889C9.17282 7.94689 9.22082 7.16289 8.72482 6.66689ZM11.5424 9.48769C11.3317 9.27087 11.0436 9.14642 10.7413 9.14162C10.439 9.13682 10.1471 9.25206 9.92962 9.46209C9.06372 10.3163 8.37644 11.3342 7.90782 12.4566C7.43919 13.579 7.19859 14.7834 7.20002 15.9997C7.20002 18.7069 8.36802 21.1405 10.2288 22.8237C10.4486 23.0175 10.7346 23.1193 11.0274 23.108C11.3202 23.0967 11.5974 22.9731 11.8016 22.7629C12.3264 22.2381 12.2288 21.4125 11.736 20.9485C11.0607 20.3133 10.5228 19.5465 10.1554 18.6953C9.78805 17.8442 9.59903 16.9267 9.60002 15.9997C9.60002 14.1597 10.3312 12.4893 11.52 11.2637C11.9776 10.7933 12.0528 9.99649 11.5424 9.48769ZM20.4576 9.48609C20.6683 9.26927 20.9564 9.14482 21.2587 9.14002C21.561 9.13522 21.8529 9.25046 22.0704 9.46049C22.9365 10.3148 23.6239 11.333 24.0925 12.4557C24.5612 13.5784 24.8017 14.7831 24.8 15.9997C24.8 18.7069 23.632 21.1405 21.7712 22.8237C21.5514 23.0175 21.2655 23.1193 20.9727 23.108C20.6798 23.0967 20.4026 22.9731 20.1984 22.7629C19.6736 22.2381 19.7712 21.4125 20.264 20.9485C20.9393 20.3133 21.4772 19.5465 21.8446 18.6953C22.212 17.8442 22.401 16.9267 22.4 15.9997C22.4 14.1597 21.6688 12.4893 20.48 11.2637C20.0224 10.7933 19.9472 9.99489 20.4576 9.48609ZM23.2752 6.66689C23.382 6.5579 23.5093 6.47103 23.6497 6.41123C23.7901 6.35144 23.9409 6.3199 24.0935 6.31841C24.2461 6.31693 24.3975 6.34553 24.539 6.40257C24.6806 6.45962 24.8095 6.544 24.9184 6.65089C26.1501 7.87608 27.1272 9.3329 27.7934 10.9374C28.4596 12.5419 28.8017 14.2624 28.8 15.9997C28.8018 17.8037 28.4329 19.5888 27.7162 21.2443C26.9995 22.8999 25.9503 24.3905 24.6336 25.6237C24.412 25.8286 24.1192 25.939 23.8175 25.9315C23.5158 25.9241 23.2288 25.7993 23.0176 25.5837C22.512 25.0781 22.5744 24.2733 23.0624 23.8077C24.1189 22.8004 24.9596 21.5888 25.5334 20.2466C26.1071 18.9043 26.402 17.4594 26.4 15.9997C26.4 13.0461 25.2144 10.3677 23.2912 8.41889C22.8272 7.94689 22.7792 7.16289 23.2752 6.66689ZM16 13.5997C15.3635 13.5997 14.753 13.8525 14.303 14.3026C13.8529 14.7527 13.6 15.3632 13.6 15.9997C13.6 16.6362 13.8529 17.2467 14.303 17.6967C14.753 18.1468 15.3635 18.3997 16 18.3997C16.6365 18.3997 17.247 18.1468 17.6971 17.6967C18.1472 17.2467 18.4 16.6362 18.4 15.9997C18.4 15.3632 18.1472 14.7527 17.6971 14.3026C17.247 13.8525 16.6365 13.5997 16 13.5997Z" fill="white"/>
</svg>
