<svg width="34" height="31" viewBox="0 0 34 31" fill="none" xmlns="http://www.w3.org/2000/svg">
<path d="M32.9368 7.03125C33.4725 7.79464 33.5931 8.65848 33.2984 9.62277L27.7739 27.8237C27.5194 28.6808 27.0071 29.4007 26.237 29.9833C25.467 30.5658 24.6466 30.8571 23.7761 30.8571H5.2337C4.20245 30.8571 3.20803 30.4989 2.25044 29.7824C1.29285 29.0658 0.626553 28.1853 0.251553 27.1406C-0.0698758 26.2433 -0.0832686 25.3929 0.211374 24.5893C0.211374 24.5357 0.231464 24.3549 0.271642 24.0469C0.311821 23.7388 0.338606 23.4911 0.351999 23.3036C0.365392 23.1964 0.345303 23.0525 0.291731 22.8717C0.23816 22.6908 0.218071 22.5603 0.231464 22.4799C0.258249 22.3326 0.311821 22.192 0.392178 22.058C0.472535 21.9241 0.583026 21.7667 0.723651 21.5859C0.864276 21.4051 0.974767 21.2478 1.05512 21.1138C1.36316 20.6049 1.6645 19.9922 1.95914 19.2757C2.25378 18.5592 2.45468 17.9464 2.56182 17.4375C2.602 17.3036 2.60535 17.1027 2.57187 16.8348C2.53838 16.567 2.53503 16.3795 2.56182 16.2723C2.602 16.125 2.71584 15.9375 2.90334 15.7098C3.09084 15.4821 3.20468 15.3281 3.24486 15.2478C3.52611 14.7656 3.80736 14.1496 4.08861 13.3996C4.36986 12.6496 4.53727 12.0469 4.59084 11.5915C4.60423 11.471 4.58749 11.2567 4.54062 10.9487C4.49374 10.6406 4.49709 10.4531 4.55066 10.3862C4.60423 10.2121 4.75155 10.0078 4.99262 9.77344C5.2337 9.53906 5.38102 9.38839 5.43459 9.32143C5.68905 8.97321 5.97365 8.40737 6.28838 7.62388C6.60312 6.8404 6.78727 6.1942 6.84084 5.68527C6.85423 5.57812 6.83414 5.40737 6.78057 5.17299C6.727 4.93862 6.71361 4.76116 6.74039 4.64062C6.76718 4.53348 6.82745 4.41295 6.9212 4.27902C7.01495 4.14509 7.13548 3.99107 7.2828 3.81696C7.43012 3.64286 7.54396 3.50223 7.62432 3.39509C7.73146 3.23438 7.84195 3.03013 7.95579 2.78237C8.06963 2.5346 8.17008 2.30022 8.25713 2.07924C8.34419 1.85826 8.45133 1.61719 8.57856 1.35603C8.70579 1.09487 8.83637 0.88058 8.9703 0.71317C9.10423 0.545759 9.28169 0.388393 9.50267 0.241071C9.72365 0.09375 9.96472 0.0167411 10.2259 0.0100446C10.487 0.00334821 10.8051 0.0401786 11.1801 0.120536L11.16 0.180804C11.669 0.0602679 12.0105 0 12.1846 0H27.4725C28.4636 0 29.227 0.375 29.7627 1.125C30.2984 1.875 30.419 2.74554 30.1243 3.73661L24.6199 21.9375C24.1377 23.5312 23.6589 24.5592 23.1835 25.0212C22.708 25.4833 21.8475 25.7143 20.602 25.7143H3.14441C2.7828 25.7143 2.52834 25.8147 2.38102 26.0156C2.2337 26.2299 2.227 26.5179 2.36093 26.8795C2.68236 27.817 3.64664 28.2857 5.25378 28.2857H23.7962C24.1846 28.2857 24.5596 28.1819 24.9212 27.9743C25.2828 27.7667 25.5172 27.4888 25.6243 27.1406L31.6511 7.3125C31.7449 7.01786 31.7783 6.63616 31.7516 6.16741C32.2605 6.3683 32.6556 6.65625 32.9368 7.03125ZM11.5618 7.07143C11.5082 7.24554 11.5216 7.39621 11.602 7.52344C11.6824 7.65067 11.8163 7.71429 12.0038 7.71429H24.2181C24.3922 7.71429 24.5629 7.65067 24.7303 7.52344C24.8978 7.39621 25.0082 7.24554 25.0618 7.07143L25.4837 5.78571C25.5373 5.61161 25.5239 5.46094 25.4435 5.33371C25.3632 5.20647 25.2292 5.14286 25.0417 5.14286H12.8274C12.6533 5.14286 12.4826 5.20647 12.3152 5.33371C12.1478 5.46094 12.0373 5.61161 11.9837 5.78571L11.5618 7.07143ZM9.89441 12.2143C9.84084 12.3884 9.85423 12.5391 9.93459 12.6663C10.0149 12.7935 10.1489 12.8571 10.3364 12.8571H22.5507C22.7248 12.8571 22.8955 12.7935 23.0629 12.6663C23.2303 12.5391 23.3408 12.3884 23.3944 12.2143L23.8163 10.9286C23.8699 10.7545 23.8565 10.6038 23.7761 10.4766C23.6957 10.3493 23.5618 10.2857 23.3743 10.2857H11.16C10.9859 10.2857 10.8152 10.3493 10.6478 10.4766C10.4803 10.6038 10.3699 10.7545 10.3163 10.9286L9.89441 12.2143Z" fill="white"/>
</svg>
