<svg width="24" height="24" viewBox="0 0 24 24" fill="none" xmlns="http://www.w3.org/2000/svg">
<path d="M3.92855 13H9.82141C10.0819 13 10.3317 12.8946 10.5159 12.7071C10.7001 12.5196 10.8036 12.2652 10.8036 12V4C10.8036 3.73478 10.7001 3.48043 10.5159 3.29289C10.3317 3.10536 10.0819 3 9.82141 3H3.92855C3.66807 3 3.41826 3.10536 3.23407 3.29289C3.04989 3.48043 2.94641 3.73478 2.94641 4V12C2.94641 12.2652 3.04989 12.5196 3.23407 12.7071C3.41826 12.8946 3.66807 13 3.92855 13ZM2.94641 20C2.94641 20.2652 3.04989 20.5196 3.23407 20.7071C3.41826 20.8946 3.66807 21 3.92855 21H9.82141C10.0819 21 10.3317 20.8946 10.5159 20.7071C10.7001 20.5196 10.8036 20.2652 10.8036 20V16C10.8036 15.7348 10.7001 15.4804 10.5159 15.2929C10.3317 15.1054 10.0819 15 9.82141 15H3.92855C3.66807 15 3.41826 15.1054 3.23407 15.2929C3.04989 15.4804 2.94641 15.7348 2.94641 16V20ZM12.7678 20C12.7678 20.2652 12.8713 20.5196 13.0555 20.7071C13.2397 20.8946 13.4895 21 13.75 21H19.6428C19.9033 21 20.1531 20.8946 20.3373 20.7071C20.5215 20.5196 20.625 20.2652 20.625 20V13C20.625 12.7348 20.5215 12.4804 20.3373 12.2929C20.1531 12.1054 19.9033 12 19.6428 12H13.75C13.4895 12 13.2397 12.1054 13.0555 12.2929C12.8713 12.4804 12.7678 12.7348 12.7678 13V20ZM13.75 10H19.6428C19.9033 10 20.1531 9.89464 20.3373 9.70711C20.5215 9.51957 20.625 9.26522 20.625 9V4C20.625 3.73478 20.5215 3.48043 20.3373 3.29289C20.1531 3.10536 19.9033 3 19.6428 3H13.75C13.4895 3 13.2397 3.10536 13.0555 3.29289C12.8713 3.48043 12.7678 3.73478 12.7678 4V9C12.7678 9.26522 12.8713 9.51957 13.0555 9.70711C13.2397 9.89464 13.4895 10 13.75 10Z" fill="white"/>
</svg>
