<svg width="32" height="32" viewBox="0 0 32 32" fill="none" xmlns="http://www.w3.org/2000/svg">
<path d="M27.4934 9.41268C27.1605 8.62375 26.6757 7.90796 26.0667 7.30602C25.4605 6.6865 24.7347 6.1966 23.9334 5.86602C23.4454 5.66409 22.9352 5.52086 22.4134 5.43935V3.66602C22.4134 3.4008 22.308 3.14645 22.1205 2.95891C21.933 2.77137 21.6786 2.66602 21.4134 2.66602C21.1482 2.66602 20.8938 2.77137 20.7063 2.95891C20.5188 3.14645 20.4134 3.4008 20.4134 3.66602V5.35935H11.6001V3.66602C11.6001 3.4008 11.4947 3.14645 11.3072 2.95891C11.1196 2.77137 10.8653 2.66602 10.6001 2.66602C10.3348 2.66602 10.0805 2.77137 9.89295 2.95891C9.70542 3.14645 9.60006 3.4008 9.60006 3.66602V5.43935C8.21972 5.64305 6.94257 6.28864 5.96006 7.27935C5.34981 7.8879 4.86599 8.61118 4.53647 9.40752C4.20695 10.2039 4.03824 11.0575 4.04006 11.9193V22.7193C4.03791 23.5879 4.2055 24.4484 4.53339 25.2527C4.85608 26.0517 5.3368 26.7773 5.94673 27.386C6.55206 28.0047 7.27739 28.4953 8.08006 28.826C8.87739 29.1607 9.73339 29.3327 10.6001 29.3327H21.4134C23.1498 29.3256 24.8129 28.6318 26.0395 27.4027C27.2661 26.1736 27.9566 24.5091 27.9601 22.7727V11.9593C27.9835 11.0872 27.8245 10.2198 27.4934 9.41268ZM22.1601 22.1993H9.93339C9.66818 22.1993 9.41382 22.094 9.22629 21.9065C9.03875 21.7189 8.93339 21.4646 8.93339 21.1993C8.93339 20.9341 9.03875 20.6798 9.22629 20.4922C9.41382 20.3047 9.66818 20.1993 9.93339 20.1993H22.0667C22.3319 20.1993 22.5863 20.3047 22.7738 20.4922C22.9614 20.6798 23.0667 20.9341 23.0667 21.1993C23.0667 21.4646 22.9614 21.7189 22.7738 21.9065C22.5863 22.094 22.3319 22.1993 22.0667 22.1993H22.1601ZM22.1601 15.4393H9.93339C9.66818 15.4393 9.41382 15.334 9.22629 15.1465C9.03875 14.9589 8.93339 14.7046 8.93339 14.4393C8.93339 14.1741 9.03875 13.9198 9.22629 13.7322C9.41382 13.5447 9.66818 13.4393 9.93339 13.4393H22.0667C22.3319 13.4393 22.5863 13.5447 22.7738 13.7322C22.9614 13.9198 23.0667 14.1741 23.0667 14.4393C23.0667 14.7046 22.9614 14.9589 22.7738 15.1465C22.5863 15.334 22.3319 15.4393 22.0667 15.4393H22.1601Z" fill="white"/>
</svg>
