<svg width="24" height="24" viewBox="0 0 24 24" fill="none" xmlns="http://www.w3.org/2000/svg">
<path d="M22.8085 6.40234C23.1656 6.91127 23.246 7.48717 23.0495 8.13002L19.3665 20.264C19.1969 20.8354 18.8553 21.3153 18.3419 21.7037C17.8286 22.0921 17.2817 22.2863 16.7013 22.2863H4.33972C3.65222 22.2863 2.98927 22.0474 2.35088 21.5698C1.71248 21.0921 1.26829 20.505 1.01829 19.8086C0.804002 19.2104 0.795074 18.6434 0.991502 18.1077C0.991502 18.072 1.00489 17.9515 1.03168 17.7461C1.05847 17.5407 1.07632 17.3756 1.08525 17.2506C1.09418 17.1791 1.08079 17.0831 1.04507 16.9626C1.00936 16.8421 0.995966 16.755 1.00489 16.7015C1.02275 16.6032 1.05847 16.5095 1.11204 16.4202C1.16561 16.3309 1.23927 16.226 1.33302 16.1055C1.42677 15.9849 1.50043 15.88 1.554 15.7907C1.75936 15.4515 1.96025 15.043 2.15668 14.5653C2.35311 14.0876 2.48704 13.6791 2.55847 13.3398C2.58525 13.2506 2.58748 13.1166 2.56516 12.9381C2.54284 12.7595 2.54061 12.6345 2.55847 12.5631C2.58525 12.4648 2.66114 12.3398 2.78614 12.1881C2.91114 12.0363 2.98704 11.9336 3.01382 11.88C3.20132 11.5586 3.38882 11.1479 3.57632 10.6479C3.76382 10.1479 3.87543 9.74609 3.91114 9.44252C3.92007 9.36217 3.90891 9.21931 3.87766 9.01395C3.84641 8.80859 3.84864 8.68359 3.88436 8.63895C3.92007 8.52288 4.01829 8.38672 4.179 8.23047C4.33972 8.07422 4.43793 7.97377 4.47364 7.92913C4.64329 7.69699 4.83302 7.31975 5.04284 6.79743C5.25266 6.27511 5.37543 5.84431 5.41114 5.50502C5.42007 5.43359 5.40668 5.31975 5.37097 5.1635C5.33525 5.00725 5.32632 4.88895 5.34418 4.80859C5.36204 4.73717 5.40222 4.65681 5.46472 4.56752C5.52722 4.47824 5.60757 4.37556 5.70579 4.25949C5.804 4.14342 5.87989 4.04967 5.93347 3.97824C6.00489 3.87109 6.07856 3.73493 6.15445 3.56975C6.23034 3.40458 6.29731 3.24833 6.35534 3.101C6.41338 2.95368 6.48481 2.79297 6.56963 2.61886C6.65445 2.44475 6.7415 2.3019 6.83079 2.19029C6.92007 2.07868 7.03838 1.97377 7.1857 1.87556C7.33302 1.77734 7.49373 1.726 7.66784 1.72154C7.84195 1.71708 8.054 1.74163 8.304 1.7952L8.29061 1.83538C8.62989 1.75502 8.85757 1.71484 8.97365 1.71484H19.1656C19.8263 1.71484 20.3353 1.96484 20.6924 2.46484C21.0495 2.96484 21.1299 3.5452 20.9335 4.20592L17.2638 16.3398C16.9424 17.4023 16.6232 18.0876 16.3062 18.3956C15.9893 18.7037 15.4156 18.8577 14.5853 18.8577H2.94686C2.70579 18.8577 2.53614 18.9247 2.43793 19.0586C2.33972 19.2015 2.33525 19.3934 2.42454 19.6345C2.63882 20.2595 3.28168 20.572 4.35311 20.572H16.7147C16.9736 20.572 17.2236 20.5028 17.4647 20.3644C17.7058 20.226 17.862 20.0407 17.9335 19.8086L21.9513 6.58984C22.0138 6.39342 22.0361 6.13895 22.0183 5.82645C22.3576 5.96038 22.621 6.15234 22.8085 6.40234ZM8.55847 6.42913C8.52275 6.5452 8.53168 6.64565 8.58525 6.73047C8.63882 6.81529 8.72811 6.8577 8.85311 6.8577H16.996C17.112 6.8577 17.2259 6.81529 17.3375 6.73047C17.4491 6.64565 17.5228 6.5452 17.5585 6.42913L17.8397 5.57199C17.8754 5.45592 17.8665 5.35547 17.8129 5.27065C17.7594 5.18583 17.6701 5.14342 17.5451 5.14342H9.40222C9.28615 5.14342 9.17231 5.18583 9.0607 5.27065C8.94909 5.35547 8.87543 5.45592 8.83972 5.57199L8.55847 6.42913ZM7.44686 9.8577C7.41114 9.97377 7.42007 10.0742 7.47364 10.159C7.52722 10.2439 7.6165 10.2863 7.7415 10.2863H15.8844C16.0004 10.2863 16.1143 10.2439 16.2259 10.159C16.3375 10.0742 16.4111 9.97377 16.4469 9.8577L16.7281 9.00056C16.7638 8.88449 16.7549 8.78404 16.7013 8.69922C16.6478 8.6144 16.5585 8.57199 16.4335 8.57199H8.29061C8.17454 8.57199 8.0607 8.6144 7.94909 8.69922C7.83748 8.78404 7.76382 8.88449 7.72811 9.00056L7.44686 9.8577Z" fill="#0B56A4"/>
</svg>
