<svg width="32" height="32" viewBox="0 0 32 32" fill="none" xmlns="http://www.w3.org/2000/svg">
<path d="M27.4933 9.41366C27.1604 8.62473 26.6757 7.90894 26.0667 7.30699C25.4604 6.68748 24.7346 6.19757 23.9333 5.86699C23.4454 5.66507 22.9351 5.52184 22.4133 5.44033V3.66699C22.4133 3.40178 22.308 3.14742 22.1204 2.95989C21.9329 2.77235 21.6785 2.66699 21.4133 2.66699C21.1481 2.66699 20.8938 2.77235 20.7062 2.95989C20.5187 3.14742 20.4133 3.40178 20.4133 3.66699V5.36033H11.6V3.66699C11.6 3.40178 11.4946 3.14742 11.3071 2.95989C11.1196 2.77235 10.8652 2.66699 10.6 2.66699C10.3348 2.66699 10.0804 2.77235 9.89289 2.95989C9.70536 3.14742 9.6 3.40178 9.6 3.66699V5.44033C8.21965 5.64402 6.94251 6.28961 5.96 7.28033C5.34975 7.88888 4.86593 8.61215 4.53641 9.40849C4.20689 10.2048 4.03818 11.0585 4.04 11.9203V22.7203C4.03785 23.5888 4.20544 24.4494 4.53333 25.2537C4.85602 26.0527 5.33674 26.7783 5.94667 27.387C6.552 28.0057 7.27733 28.4963 8.08 28.827C8.87733 29.1617 9.73333 29.3337 10.6 29.3337H21.4133C23.1498 29.3266 24.8129 28.6328 26.0395 27.4037C27.2661 26.1746 27.9565 24.5101 27.96 22.7737V11.9603C27.9834 11.0882 27.8245 10.2208 27.4933 9.41366ZM22.16 22.2003H9.93333C9.66811 22.2003 9.41376 22.095 9.22623 21.9074C9.03869 21.7199 8.93333 21.4655 8.93333 21.2003C8.93333 20.9351 9.03869 20.6808 9.22623 20.4932C9.41376 20.3057 9.66811 20.2003 9.93333 20.2003H22.0667C22.3319 20.2003 22.5862 20.3057 22.7738 20.4932C22.9613 20.6808 23.0667 20.9351 23.0667 21.2003C23.0667 21.4655 22.9613 21.7199 22.7738 21.9074C22.5862 22.095 22.3319 22.2003 22.0667 22.2003H22.16ZM22.16 15.4403H9.93333C9.66811 15.4403 9.41376 15.335 9.22623 15.1474C9.03869 14.9599 8.93333 14.7055 8.93333 14.4403C8.93333 14.1751 9.03869 13.9208 9.22623 13.7332C9.41376 13.5457 9.66811 13.4403 9.93333 13.4403H22.0667C22.3319 13.4403 22.5862 13.5457 22.7738 13.7332C22.9613 13.9208 23.0667 14.1751 23.0667 14.4403C23.0667 14.7055 22.9613 14.9599 22.7738 15.1474C22.5862 15.335 22.3319 15.4403 22.0667 15.4403H22.16Z" fill="#282526"/>
</svg>
