<svg width="20" height="20" viewBox="0 0 20 20" fill="none" xmlns="http://www.w3.org/2000/svg">
<g clip-path="url(#clip0_1413_415)">
<path d="M9.99992 19.1673C9.77891 19.1673 9.56694 19.0795 9.41066 18.9232C9.25438 18.767 9.16659 18.555 9.16659 18.334V15.834H5.83325C5.39122 15.834 4.9673 15.6584 4.65474 15.3458C4.34218 15.0333 4.16659 14.6093 4.16659 14.1673V5.83398C4.16659 5.39196 4.34218 4.96803 4.65474 4.65547C4.9673 4.34291 5.39122 4.16732 5.83325 4.16732H17.4999C17.9419 4.16732 18.3659 4.34291 18.6784 4.65547C18.991 4.96803 19.1666 5.39196 19.1666 5.83398V14.1673C19.1666 14.6093 18.991 15.0333 18.6784 15.3458C18.3659 15.6584 17.9419 15.834 17.4999 15.834H14.0833L10.9999 18.9257C10.8333 19.0757 10.6333 19.1673 10.4166 19.1673H9.99992ZM10.8333 14.1673V16.734L13.3999 14.1673H17.4999V5.83398H5.83325V14.1673H10.8333ZM2.49992 12.5007H0.833252V2.50065C0.833252 2.05862 1.00885 1.6347 1.32141 1.32214C1.63397 1.00958 2.05789 0.833984 2.49992 0.833984H15.8333V2.50065H2.49992V12.5007ZM7.49992 7.50065H15.8333V9.16732H7.49992V7.50065ZM7.49992 10.834H14.1666V12.5007H7.49992V10.834Z" fill="#282526"/>
</g>
<defs>
<clipPath id="clip0_1413_415">
<rect width="20" height="20" fill="white"/>
</clipPath>
</defs>
</svg>
