<svg width="7169" height="5537" viewBox="0 0 7169 5537" fill="none" xmlns="http://www.w3.org/2000/svg">
<path d="M6321.08 3775.32V215.035C6321.08 158.005 6298.43 103.309 6258.1 62.9825C6217.77 22.6555 6163.08 0 6106.05 0H1039.15C982.094 -3.20108e-05 927.376 22.6481 887.013 62.9686C846.649 103.289 823.943 157.984 823.883 215.035V3775.32H6321.08Z" fill="#263238"/>
<path d="M5981.08 323.351H1175.28V3434.18H5981.08V323.351Z" fill="white"/>
<path d="M823.885 3775.32L19.3828 5423.77H7150.21L6321.08 3775.32H823.885Z" fill="white" stroke="#263238" stroke-width="1.05102" stroke-miterlimit="10"/>
<path d="M7168.69 5435.63H0V5536.42H7168.69V5435.63Z" fill="#263238"/>
<path d="M1523.72 3873.15L1452.34 4043.49H1814.92L1880.36 3873.15H1523.72ZM1081.56 4067.43L992.401 4269.01H1332.63L1416.77 4067.43H1081.56ZM981.684 4292.96L892.523 4494.31H1238.45L1322.59 4292.96H981.684ZM2154 4292.96L2094.03 4494.31H2387.28L2431.29 4292.96H2154ZM2792.5 4067.43L2765.82 4269.01H3043.79L3062.03 4067.43H2792.5ZM2457.06 4292.96L2411.45 4494.31H2711.09L2737.77 4292.96H2457.06ZM2762.85 4292.96L2736.4 4494.31H3023.04L3041.51 4292.96H2762.85ZM3086.43 4067.43L3067.96 4269.01H3340L3350.04 4067.43H3086.43ZM3103.99 3873.15L3088.48 4043.49H3351.18L3359.84 3873.15H3103.99ZM3643.52 4067.43H3373.98L3363.95 4269.01H3645.57L3643.52 4067.43ZM3065.45 4292.96L3047.21 4494.31H3328.83L3338.64 4292.96H3065.45ZM3646.03 4292.96H3362.81L3352.55 4494.31H3647.62L3646.03 4292.96ZM3935.4 4292.96H3669.74L3671.57 4494.31H3946.35L3935.4 4292.96ZM4196.27 3873.15H3937.91L3947.03 4043.49H4213.83L4196.27 3873.15ZM4216.56 4067.43H3947.49L3958.2 4269.01H4238L4216.56 4067.43ZM4476.29 3873.15H4219.99L4238 4043.49H4502.06L4476.29 3873.15ZM4505.94 4067.43H4240.51L4261.72 4269.01H4536.5L4505.94 4067.43ZM4240.28 4292.96H3960.71L3971.43 4494.31H4262.63L4240.28 4292.96ZM4540.37 4292.96H4264.45L4285.66 4494.31H4571.38L4540.37 4292.96ZM5951.44 4067.43H5686.01L5756.47 4269.01H6030.11L5951.44 4067.43ZM5230.86 4518.25H4916.85L4955.62 4726.22H5283.31L5230.86 4518.25ZM5739.37 4292.96H5516.81L5580.2 4494.31H5810.06L5739.37 4292.96ZM6038.32 4292.96H5764.68L5834.92 4494.31H6116.54L6038.32 4292.96ZM1254.18 4518.25L1167.3 4726.22H1552.22L1632.26 4518.25H1254.18ZM6507.84 4750.16H6241.04L6338.19 4999.63H6312.42L6215.51 4750.16H778.962L668.594 4999.63H6614.34L6507.84 4750.16ZM882.261 4518.25L791.048 4726.22H1143.13L1229.78 4518.25H882.261ZM6127.03 4518.25H5843.58L5916.1 4726.22H6206.84L6127.03 4518.25ZM6409.79 4518.25H6151.66L6232.84 4726.22H6497.81L6409.79 4518.25ZM6314.02 4292.96H6064.32L6142.53 4494.31H6398.84L6314.02 4292.96ZM5819.18 4518.25H5588.87L5654.31 4726.22H5891.93L5819.18 4518.25ZM5563.56 4518.25H5255.26L5308.84 4726.22H5628.09L5563.56 4518.25ZM4893.6 4518.25H4599.2L4631.13 4726.22H4931.22L4893.6 4518.25ZM4575.72 4518.25H4288.17L4309.83 4726.22H4606.27L4575.72 4518.25ZM4264.91 4518.25H3971.66L3982.83 4726.22H4285.89L4264.91 4518.25ZM3948.4 4518.25H3671.79L3674.07 4726.22H3958.66L3948.4 4518.25ZM3648.76 4518.25H3352.32L3342.06 4726.22H3651.04L3648.76 4518.25ZM3045.61 4518.25L3026.69 4726.22H3317.89L3328.38 4518.25H3045.61ZM2733.89 4518.25L2706.53 4726.22H3002.97L3022.13 4518.25H2733.89ZM2408.26 4518.25L2362.65 4726.22H2681.9L2709.04 4518.25H2408.26ZM2089.01 4518.25L2027.22 4726.22H2339.17L2384.77 4518.25H2089.01ZM1660.08 4518.25L1580.04 4726.22H1999.62L2061.65 4518.25H1660.08ZM5493.55 4292.96H5199.39L5250.92 4494.31H5556.94L5493.55 4292.96ZM6218.7 4067.43H5976.75L6055.2 4269.01H6302.61L6218.7 4067.43ZM6138.89 3880.44L6135.92 3873.15H5901.28L5967.41 4043.49H6206.61L6138.89 3880.44ZM5876.19 3873.15H5618.29L5677.57 4043.49H5941.87L5876.19 3873.15ZM5593.2 3873.15H5385.24L5438.82 4043.49H5652.72L5593.2 3873.15ZM5661.61 4067.43H5446.81L5510.43 4269.01H5732.07L5661.61 4067.43ZM5421.72 4067.43H5139.87L5191.64 4269.01H5484.2L5421.72 4067.43ZM5360.61 3873.15H5090.16L5133.94 4043.49H5413.06L5360.61 3873.15ZM5174.08 4292.96H4875.35L4912.52 4494.31H5224.7L5174.08 4292.96ZM4851.87 4292.96H4564.32L4595.33 4494.31H4888.12L4851.87 4292.96ZM5116.38 4067.43H4833.4L4870.79 4269.01H5167.24L5116.38 4067.43ZM5066.44 3873.15H4797.37L4829.06 4043.49H5109.09L5066.44 3873.15ZM4809.91 4067.43H4530.79L4561.81 4269.01H4847.31L4809.91 4067.43ZM4774.11 3873.15H4500.47L4526.46 4043.49H4804.44L4774.11 3873.15ZM3924 4067.43H3667.23L3669.51 4269.01H3934.03L3924 4067.43ZM3913.74 3873.15H3665.41L3667 4043.49H3921.95L3913.74 3873.15ZM3642.38 3873.15H3383.56L3375.12 4043.49H3643.06L3642.38 3873.15ZM2818.95 3873.15L2796.15 4043.49H3065L3080.5 3873.15H2818.95ZM2549.64 3873.15L2512.24 4043.49H2772.43L2795.23 3873.15H2549.64ZM2507 4067.43L2462.99 4269.01H2742.56L2769.01 4067.43H2507ZM2278.97 3873.15L2227.66 4043.49H2486.48L2523.65 3873.15H2278.97ZM2221.05 4067.43L2161.53 4269.01H2437.45L2481.69 4067.43H2221.05ZM1906.36 3873.15L1840 4043.49H2202.35L2252.74 3873.15H1906.36ZM1831.79 4067.43L1754.26 4269.01H2136.44L2196.42 4067.43H1831.79ZM1744.91 4292.96L1667.61 4494.31H2069.4L2129.38 4292.96H1744.91ZM1348.82 4292.96L1264.67 4494.31H1641.61L1719.14 4292.96H1348.82ZM1443 4067.43L1358.85 4269.01H1728.27L1805.8 4067.43H1443ZM1167.76 3873.15L1092.28 4043.49H1427.03L1498.18 3873.15H1167.76ZM5660.02 4067.43H5445.21L5508.83 4269.01H5730.48L5660.02 4067.43Z" fill="#263238"/>
<path d="M1568.87 4750.16L1564.31 4762.25L1541.96 4753.58L1543.1 4750.16H1568.87Z" fill="#263238"/>
<path d="M1157.5 4750.16L1155.21 4755.86L1141.3 4750.16H1157.5Z" fill="#263238"/>
<path d="M4922.56 980.543H2268.25C2130.47 980.543 2018.78 1092.23 2018.78 1230.01V2189.8C2018.78 2327.58 2130.47 2439.27 2268.25 2439.27H4922.56C5060.34 2439.27 5172.03 2327.58 5172.03 2189.8V1230.01C5172.03 1092.23 5060.34 980.543 4922.56 980.543Z" fill="#5E8AD1" stroke="#2E353A" stroke-width="1.57762" stroke-miterlimit="10"/>
<path d="M2387.28 3101.03H4808.54C4843.68 3100.98 4878.2 3091.74 4908.66 3074.24C4939.13 3056.74 4964.5 3031.57 4982.24 3001.25C4999.99 2970.92 5009.5 2936.48 5009.83 2901.34C5010.16 2866.2 5001.3 2831.59 4984.13 2800.93L3773.27 641.002C3755.74 609.824 3730.22 583.874 3699.34 565.815C3668.47 547.755 3633.34 538.237 3597.57 538.237C3561.8 538.237 3526.68 547.755 3495.8 565.815C3464.92 583.874 3439.41 609.824 3421.87 641.002L2211.01 2800.93C2193.81 2831.64 2184.95 2866.32 2185.32 2901.51C2185.68 2936.71 2195.25 2971.19 2213.07 3001.54C2230.9 3031.89 2256.36 3057.04 2286.92 3074.49C2317.49 3091.95 2352.09 3101.1 2387.28 3101.03Z" fill="#263238"/>
<path d="M2507.23 2972.64H4687.91C4771.37 2972.64 4824.73 2878.01 4783.23 2801.16L3693 754.79C3684.13 737.075 3670.51 722.177 3653.65 711.766C3636.8 701.354 3617.38 695.839 3597.57 695.839C3577.76 695.839 3558.34 701.354 3541.48 711.766C3524.63 722.177 3511 737.075 3502.13 754.79L2411.91 2801.16C2370.86 2878.01 2423.76 2972.64 2507.23 2972.64Z" stroke="white" stroke-width="0.788267" stroke-miterlimit="10"/>
<path d="M3560.05 2304.51H3621.17C3668.14 2304.51 3707.59 2260.27 3712.38 2201.89L3772.58 1540.59C3778.74 1472.18 3735.87 1411.98 3681.37 1411.98H3490.05C3434.18 1411.98 3391.08 1473.32 3398.83 1542.65L3468.84 2203.94C3474.54 2261.41 3513.76 2304.51 3560.05 2304.51Z" fill="white"/>
<path d="M3709.87 2538.7C3709.87 2563.23 3702.6 2587.21 3688.97 2607.61C3675.34 2628.01 3655.96 2643.91 3633.3 2653.3C3610.63 2662.69 3585.69 2665.15 3561.62 2660.36C3537.56 2655.58 3515.46 2643.76 3498.11 2626.41C3480.76 2609.06 3468.94 2586.96 3464.16 2562.9C3459.37 2538.83 3461.83 2513.89 3471.22 2491.22C3480.61 2468.56 3496.51 2449.18 3516.91 2435.55C3537.31 2421.92 3561.29 2414.65 3585.82 2414.65C3618.72 2414.65 3650.28 2427.72 3673.54 2450.98C3696.8 2474.24 3709.87 2505.8 3709.87 2538.7Z" fill="white"/>
</svg>
