<svg width="14" height="14" viewBox="0 0 14 14" fill="none" xmlns="http://www.w3.org/2000/svg">
<path d="M8.60106 4.68222L9.31651 5.39778L2.2708 12.4444H1.55534V11.7289L8.60106 4.68222ZM11.4007 0C11.2063 0 11.0041 0.0777778 10.8563 0.225556L9.43316 1.64889L12.3494 4.56556L13.7726 3.14222C13.8447 3.07027 13.9019 2.9848 13.9409 2.89071C13.9799 2.79662 14 2.69575 14 2.59389C14 2.49202 13.9799 2.39116 13.9409 2.29707C13.9019 2.20298 13.8447 2.11751 13.7726 2.04556L11.9528 0.225556C11.7973 0.07 11.6029 0 11.4007 0ZM8.60106 2.48111L0 11.0833V14H2.91627L11.5173 5.39778L8.60106 2.48111Z" fill="#00A343"/>
</svg>
