<svg width="36" height="36" viewBox="0 0 36 36" fill="none" xmlns="http://www.w3.org/2000/svg">
<path fill-rule="evenodd" clip-rule="evenodd" d="M4.5 9C4.5 8.20435 4.81607 7.44129 5.37868 6.87868C5.94129 6.31607 6.70435 6 7.5 6H15.798C16.2377 6.00016 16.672 6.09699 17.0702 6.28362C17.4683 6.47026 17.8206 6.74213 18.102 7.08L20.952 10.5H4.5V9ZM4.5 13.5V28.5C4.5 29.2956 4.81607 30.0587 5.37868 30.6213C5.94129 31.1839 6.70435 31.5 7.5 31.5H28.5C29.2956 31.5 30.0587 31.1839 30.6213 30.6213C31.1839 30.0587 31.5 29.2956 31.5 28.5V13.5H4.5Z" fill="#282526"/>
</svg>
