<svg width="32" height="32" viewBox="0 0 32 32" fill="none" xmlns="http://www.w3.org/2000/svg">
<path d="M7.99998 17.333H2.66665C1.86665 17.333 1.33331 17.8663 1.33331 18.6663V29.333C1.33331 30.133 1.86665 30.6663 2.66665 30.6663H7.99998C8.79998 30.6663 9.33331 30.133 9.33331 29.333V18.6663C9.33331 17.8663 8.79998 17.333 7.99998 17.333ZM29.3333 11.9997H24C23.2 11.9997 22.6666 12.533 22.6666 13.333V29.333C22.6666 30.133 23.2 30.6663 24 30.6663H29.3333C30.1333 30.6663 30.6666 30.133 30.6666 29.333V13.333C30.6666 12.533 30.1333 11.9997 29.3333 11.9997ZM18.6666 1.33301H13.3333C12.5333 1.33301 12 1.86634 12 2.66634V29.333C12 30.133 12.5333 30.6663 13.3333 30.6663H18.6666C19.4666 30.6663 20 30.133 20 29.333V2.66634C20 1.86634 19.4666 1.33301 18.6666 1.33301Z" fill="#282526"/>
</svg>
