<svg width="648" height="428" viewBox="0 0 648 428" fill="none" xmlns="http://www.w3.org/2000/svg">
<g filter="url(#filter0_d_689_1176)">
<path d="M632.883 98.8725L622.875 147.346L616.432 141.061L605.472 148.884L597.095 138.478L578.312 152.136L562.259 125.29L544.354 135.779L537.253 125.991L514.517 138.802L507.677 124.15L523.616 46.958L609.059 64.601L632.883 98.8725Z" fill="#EBEBEB"/>
<path d="M609.059 64.5996L632.883 98.8711L603.244 92.7531L609.059 64.5996Z" fill="#DBDBDB"/>
<path d="M620.741 157.031L606.068 228.146L490.975 204.385L505.544 133.845L512.383 148.486L535.13 135.675L542.221 145.464L560.136 134.985L576.178 161.831L594.972 148.172L603.338 158.568L614.309 150.756L620.741 157.031Z" fill="#EBEBEB"/>
<path d="M456.014 148.695L338.725 155.953L329.407 5.39643L416.503 0L448.473 26.8253L456.014 148.695Z" fill="#EBEBEB"/>
<path d="M416.503 0L448.473 26.8253L418.27 28.6973L416.503 0Z" fill="#DBDBDB"/>
<path d="M384.03 101.308L383.57 97.9094C382.388 90.8711 384.313 82.996 390.431 74.7654C395.953 67.4447 398.944 62.2156 398.609 56.2754C398.233 49.5821 393.788 45.357 385.515 45.6917C380.788 45.9372 376.247 47.6151 372.495 50.5024L368.887 42.4182C373.07 39.0193 380.391 36.5094 387.346 36.1433C402.437 35.3067 409.779 44.238 410.354 54.2046C410.856 63.1255 406.233 69.8292 400.356 77.6624C394.959 84.8053 393.192 90.6933 393.955 97.3552L394.279 100.765L384.03 101.308ZM382.169 119.83C381.897 114.977 384.982 111.38 389.573 111.129C394.164 110.878 397.511 114.099 397.783 118.962C398.034 123.553 395.221 127.255 390.368 127.527C385.735 127.789 382.388 124.421 382.127 119.83H382.169Z" fill="#DBDBDB"/>
<path d="M90.6569 75.6957L78.8601 70.3516L77.2181 73.9596C76.9757 74.4753 76.5974 74.9151 76.1239 75.2321C75.6504 75.549 75.0995 75.7309 74.5304 75.7584C73.8821 75.7797 73.2358 75.8426 72.5956 75.9467C72.0336 76.0302 71.4595 75.9594 70.9345 75.7421C70.4096 75.5247 69.9535 75.1689 69.615 74.7126L67.3037 71.481L56.7723 79.0319L59.0836 82.2634C59.4051 82.7299 59.5943 83.2747 59.6311 83.8399C59.6679 84.4052 59.551 84.9699 59.2928 85.4741C58.9946 86.0493 58.7258 86.6391 58.4875 87.2415C58.2803 87.7727 57.9323 88.2374 57.4809 88.5857C57.0294 88.9339 56.4916 89.1526 55.9252 89.2181L51.9825 89.6051L53.2479 102.5L57.2116 102.103C57.78 102.057 58.3501 102.168 58.8605 102.422C59.3709 102.676 59.8024 103.065 60.1085 103.546C60.2758 103.818 60.4536 104.079 60.6419 104.341C60.8301 104.602 61.0184 104.853 61.2171 105.104C61.578 105.543 61.8101 106.074 61.8876 106.637C61.9652 107.2 61.8851 107.774 61.6563 108.294L60.0039 111.933L71.8112 117.288L73.4532 113.659C73.6979 113.144 74.0784 112.705 74.5538 112.39C75.0292 112.075 75.5816 111.895 76.1514 111.871C76.7924 111.844 77.4314 111.781 78.0652 111.682C78.6272 111.599 79.2013 111.67 79.7263 111.887C80.2512 112.104 80.7073 112.46 81.0458 112.916L83.3571 116.148L93.8989 108.597L91.5877 105.366C91.2563 104.903 91.0611 104.358 91.0241 103.79C90.9872 103.223 91.1099 102.656 91.3785 102.155C91.6698 101.583 91.9316 100.997 92.1629 100.398C92.364 99.8629 92.7103 99.3945 93.1629 99.0453C93.6155 98.6962 94.1565 98.4801 94.7251 98.4214L98.6888 98.024L97.4129 85.129L93.4492 85.5159C92.8843 85.5656 92.3167 85.458 91.8092 85.2051C91.3016 84.9523 90.8739 84.564 90.5732 84.0832C90.3954 83.8113 90.2177 83.5498 90.0294 83.2883C89.8412 83.0269 89.6529 82.7654 89.4542 82.5249C89.0957 82.0804 88.8654 81.5465 88.788 80.9807C88.7106 80.4149 88.7891 79.8387 89.015 79.3142L90.6569 75.6957ZM83.9637 87.6285C85.1866 89.3352 85.876 91.3662 85.9447 93.4646C86.0133 95.5631 85.4581 97.6348 84.3492 99.4177C83.2403 101.201 81.6277 102.615 79.7151 103.481C77.8026 104.347 75.6761 104.627 73.6046 104.285C71.533 103.942 69.6096 102.993 68.0774 101.558C66.5453 100.122 65.4733 98.2645 64.9969 96.2197C64.5206 94.1748 64.6614 92.0346 65.4016 90.0698C66.1417 88.105 67.4478 86.4037 69.1548 85.1813C71.4433 83.5425 74.2889 82.8796 77.066 83.3386C79.843 83.7975 82.3241 85.3406 83.9637 87.6285Z" fill="#EBEBEB"/>
<path d="M623.921 246.792L616.056 251.331L617.447 253.736C617.655 254.081 617.758 254.479 617.745 254.882C617.732 255.284 617.603 255.675 617.374 256.006C617.133 256.382 616.903 256.769 616.694 257.177C616.522 257.538 616.251 257.842 615.911 258.053C615.572 258.264 615.18 258.374 614.78 258.369H612.019V267.457H614.801C615.201 267.453 615.593 267.562 615.932 267.774C616.272 267.985 616.543 268.289 616.715 268.65C616.924 269.057 617.154 269.444 617.395 269.821C617.624 270.152 617.753 270.542 617.766 270.945C617.779 271.347 617.676 271.745 617.468 272.09L616.077 274.496L623.942 279.035L625.343 276.619C625.546 276.276 625.84 275.997 626.193 275.812C626.546 275.627 626.943 275.545 627.341 275.573H628.679C629.076 275.546 629.473 275.629 629.826 275.814C630.178 275.998 630.473 276.277 630.677 276.619L632.078 279.045L639.932 274.506L638.541 272.09C638.343 271.743 638.246 271.348 638.261 270.949C638.276 270.55 638.402 270.163 638.625 269.831C638.865 269.455 639.096 269.057 639.305 268.66C639.476 268.299 639.748 267.995 640.087 267.784C640.426 267.573 640.819 267.463 641.219 267.468H644V258.38H641.198C640.798 258.385 640.405 258.275 640.066 258.064C639.727 257.852 639.456 257.548 639.284 257.187C639.075 256.79 638.844 256.393 638.604 256.016C638.381 255.685 638.255 255.298 638.24 254.899C638.225 254.499 638.322 254.104 638.52 253.757L639.911 251.341L632.057 246.802L630.656 249.187C630.453 249.53 630.158 249.809 629.806 249.994C629.453 250.178 629.055 250.261 628.658 250.233H627.989H627.32C626.921 250.26 626.523 250.176 626.169 249.992C625.815 249.807 625.518 249.529 625.312 249.187L623.921 246.792ZM627.989 255.472C629.463 255.47 630.904 255.905 632.13 256.723C633.356 257.54 634.312 258.703 634.877 260.064C635.442 261.425 635.59 262.923 635.303 264.369C635.016 265.814 634.307 267.142 633.265 268.184C632.223 269.226 630.895 269.935 629.449 270.222C628.004 270.509 626.506 270.361 625.145 269.796C623.784 269.231 622.621 268.275 621.804 267.049C620.986 265.823 620.551 264.382 620.553 262.908C620.552 261.931 620.743 260.963 621.116 260.059C621.489 259.156 622.037 258.335 622.727 257.643C623.418 256.952 624.238 256.403 625.141 256.029C626.044 255.655 627.012 255.462 627.989 255.462V255.472Z" fill="#EBEBEB"/>
<path d="M114.522 37.0531L107.317 42.575L108.979 44.7817C109.227 45.0961 109.38 45.4752 109.419 45.8738C109.458 46.2723 109.382 46.6737 109.199 47.0302C108.999 47.4373 108.824 47.8565 108.676 48.2852C108.547 48.6629 108.315 48.9971 108.007 49.2503C107.698 49.5034 107.325 49.6654 106.93 49.718L104.169 50.0736L105.34 59.0781L108.101 58.7225C108.503 58.6665 108.912 58.7251 109.282 58.8916C109.652 59.0581 109.968 59.3258 110.193 59.6637C110.444 60.0275 110.717 60.3767 111.008 60.7095C111.278 61.0058 111.456 61.3733 111.523 61.7681C111.59 62.163 111.542 62.5688 111.385 62.9371L110.339 65.5099L118.706 68.9924L119.751 66.4197C119.907 66.0507 120.163 65.7326 120.49 65.5015C120.817 65.2705 121.203 65.1357 121.602 65.1124L122.272 65.0392L122.931 64.9347C123.318 64.8617 123.717 64.8963 124.086 65.0346C124.455 65.1728 124.779 65.4096 125.022 65.719L126.727 67.9466L133.933 62.4247L132.249 60.218C132.006 59.8992 131.856 59.5189 131.818 59.1198C131.779 58.7207 131.852 58.3187 132.029 57.959C132.228 57.5547 132.402 57.1391 132.552 56.7145C132.681 56.3368 132.913 56.0026 133.221 55.7494C133.53 55.4963 133.903 55.3343 134.299 55.2817L137.06 54.9262L135.888 45.9217L133.127 46.2772C132.727 46.3343 132.318 46.2773 131.948 46.1127C131.578 45.948 131.262 45.6825 131.036 45.3464C130.774 44.97 130.502 44.6144 130.21 44.3006C129.966 43.998 129.808 43.6353 129.753 43.2508C129.698 42.8662 129.747 42.4738 129.896 42.1149L130.942 39.5422L122.575 36.0596L121.529 38.6323C121.372 38.9999 121.115 39.3167 120.788 39.5475C120.462 39.7783 120.077 39.914 119.678 39.9396L119.009 40.0023L118.392 40.0232C118.005 40.0962 117.605 40.0616 117.236 39.9233C116.868 39.785 116.544 39.5483 116.3 39.2389L114.522 37.0531ZM119.678 45.1373C121.135 44.95 122.615 45.1984 123.93 45.8511C125.246 46.5038 126.339 47.5315 127.072 48.8047C127.804 50.0778 128.143 51.5394 128.046 53.005C127.948 54.4705 127.419 55.8745 126.525 57.0396C125.631 58.2048 124.411 59.079 123.021 59.552C121.63 60.025 120.131 60.0756 118.711 59.6974C117.292 59.3192 116.017 58.5291 115.046 57.4269C114.075 56.3246 113.453 54.9595 113.257 53.5038C113.126 52.5324 113.189 51.5448 113.441 50.5977C113.694 49.6505 114.131 48.7627 114.728 47.9851C115.324 47.2076 116.069 46.5557 116.918 46.0669C117.768 45.5782 118.706 45.2623 119.678 45.1373Z" fill="#EBEBEB"/>
<path d="M60.6832 273.012C61.0761 262.902 60.9365 252.779 60.2649 242.683C58.7685 221.837 55.5893 201.146 50.7584 180.813C48.102 169.371 44.8391 158.118 41.4297 146.876C41.3251 146.531 40.7813 146.625 40.8754 146.98C51.4068 186.617 60.0453 227.509 59.4492 268.714C59.2818 280.218 57.9432 291.565 56.8555 303.027C56.8555 303.33 57.3261 303.456 57.3994 303.142C59.5642 293.301 60.2754 283.031 60.6832 273.012Z" fill="#EBEBEB"/>
<path d="M40.8755 146.948C40.8755 146.948 24.9372 187.421 28.5034 196.897C32.0697 206.372 39.4322 208.401 39.4322 208.401C39.4322 208.401 29.6747 222.331 36.4935 235.393C43.3122 248.455 58.4557 247.838 59.5015 262.647C59.4701 262.72 60.3068 200.798 40.8755 146.948Z" fill="#EBEBEB"/>
<path d="M57.7342 237.151C57.7599 237.084 57.7599 237.009 57.7342 236.942C55.6423 209.31 50.4575 182.001 42.2769 155.525C42.2769 155.452 42.1201 155.473 42.141 155.525C45.2994 167.378 48.0882 179.279 50.5075 191.229C48.3648 189.199 45.747 187.739 42.894 186.983C42.894 186.983 42.8103 187.046 42.894 187.067C45.8912 188.165 48.5861 189.957 50.7585 192.296C51.2187 194.649 51.6789 196.992 52.1076 199.345C48.5414 195.36 43.6051 193.384 38.6584 191.501C38.6472 191.506 38.6377 191.514 38.631 191.524C38.6243 191.534 38.6207 191.546 38.6207 191.559C38.6207 191.571 38.6243 191.583 38.631 191.593C38.6377 191.603 38.6472 191.611 38.6584 191.616C43.8143 193.708 48.9388 196.406 52.4319 200.851C53.645 207.565 54.7117 214.303 55.6321 221.066C53.0571 218.369 49.7548 216.476 46.1256 215.618C46.0105 215.618 45.9478 215.754 46.0628 215.785C49.7909 216.883 53.1193 219.041 55.6425 221.997H55.7053C56.019 224.368 56.3188 226.749 56.6047 229.14C54.6127 227.454 52.3636 226.099 49.9428 225.124C49.8801 225.124 49.8382 225.197 49.9428 225.218C52.4132 226.289 54.6754 227.786 56.6256 229.642C56.6256 229.642 56.6779 229.642 56.7093 229.642C56.9707 231.912 57.2322 234.181 57.4622 236.45C53.871 232.109 49.2104 228.778 43.9398 226.787C43.9176 226.787 43.8963 226.796 43.8806 226.812C43.8649 226.827 43.8561 226.849 43.8561 226.871C43.8561 226.893 43.8649 226.914 43.8806 226.93C43.8963 226.946 43.9176 226.954 43.9398 226.954C49.1442 229.248 53.7157 232.769 57.2635 237.214C57.3026 237.263 57.3553 237.299 57.4149 237.317C57.4745 237.336 57.5383 237.336 57.5982 237.318C57.9433 240.801 58.2571 244.284 58.5081 247.777C58.5081 247.829 58.5917 247.829 58.5917 247.777C58.3198 244.27 58.034 240.728 57.7342 237.151Z" fill="white"/>
<path d="M44.923 182.997C42.0365 181.2 38.7391 180.171 35.3433 180.006C35.3266 180.006 35.3107 180.012 35.2989 180.024C35.2871 180.036 35.2805 180.052 35.2805 180.069C35.2805 180.085 35.2871 180.101 35.2989 180.113C35.3107 180.125 35.3266 180.131 35.3433 180.131C38.6264 180.754 41.8125 181.809 44.8184 183.269C44.9439 183.3 45.038 183.081 44.923 182.997Z" fill="white"/>
<path d="M46.858 225.844C44.6395 224.571 42.1966 223.737 39.6627 223.387C39.5791 223.387 39.5686 223.502 39.6627 223.523C42.1371 224.019 44.5305 224.857 46.7743 226.012C46.8684 226.064 46.9521 225.897 46.858 225.844Z" fill="white"/>
<path d="M102.6 197.597C95.8577 202.258 89.6652 207.668 84.1415 213.724C78.4449 220.136 74.0509 227.595 71.2047 235.686C65.1472 252.543 61.8899 270.277 61.5622 288.186C61.3591 298.104 62.3102 308.012 64.3964 317.71C64.4133 317.78 64.4567 317.841 64.5176 317.881C64.5784 317.92 64.6521 317.935 64.7233 317.921C64.7946 317.908 64.8579 317.867 64.9002 317.809C64.9426 317.75 64.9606 317.677 64.9507 317.605C62.3547 300.491 62.4535 283.077 65.2435 265.994C67.9836 249.261 72.2819 231.043 82.9283 217.436C88.7222 210.022 95.9488 204.196 103.092 198.172C103.468 197.838 102.987 197.325 102.6 197.597Z" fill="#EBEBEB"/>
<path d="M63.9046 276.118C67.7426 269.91 72.2529 264.144 77.3538 258.924C85.3334 250.945 92.0476 245.276 93.0934 240.006C94.1393 234.735 85.1034 230.844 85.1034 230.844C85.1034 230.844 96.1368 232.831 99.1592 228.198C102.182 223.565 103.635 196.729 103.635 196.729C103.635 196.729 83.5556 211.068 74.1955 231.168C64.8354 251.269 63.9046 276.118 63.9046 276.118Z" fill="#EBEBEB"/>
<path d="M96.4299 221.903C95.1076 221.706 93.7673 221.66 92.4348 221.767C92.2779 221.767 92.2884 222.039 92.4348 222.049C93.7525 222.049 95.0807 221.986 96.3985 222.049C96.4135 222.045 96.4272 222.037 96.438 222.026C96.4488 222.015 96.4562 222.001 96.4595 221.986C96.4627 221.971 96.4617 221.955 96.4564 221.94C96.4512 221.925 96.442 221.913 96.4299 221.903Z" fill="white"/>
<path d="M82.0078 247.933C79.8874 247.976 77.7914 248.394 75.8165 249.167C75.8165 249.167 75.8165 249.271 75.8165 249.261C77.9082 248.769 79.9266 248.571 81.9973 248.215C82.0244 248.203 82.0475 248.184 82.0641 248.16C82.0807 248.135 82.0901 248.107 82.0912 248.077C82.0923 248.048 82.085 248.018 82.0703 247.993C82.0555 247.967 82.0339 247.946 82.0078 247.933Z" fill="white"/>
<path d="M77.6784 238.939C76.7981 238.932 75.9191 239.009 75.0534 239.169C75.0374 239.175 75.0236 239.186 75.0138 239.2C75.0041 239.214 74.9988 239.23 74.9988 239.247C74.9988 239.264 75.0041 239.281 75.0138 239.295C75.0236 239.309 75.0374 239.32 75.0534 239.326C75.93 239.377 76.8096 239.338 77.6784 239.211C77.7145 239.211 77.749 239.197 77.7745 239.171C77.8 239.146 77.8143 239.111 77.8143 239.075C77.8143 239.039 77.8 239.004 77.7745 238.979C77.749 238.953 77.7145 238.939 77.6784 238.939Z" fill="white"/>
<path d="M5.03538 226.065C11.5709 228.28 17.8337 231.231 23.7033 234.86C29.7935 238.73 35.0749 243.745 39.2546 249.627C48.0489 261.869 54.7822 275.466 59.1879 289.881C61.6451 297.862 63.1614 306.103 63.7059 314.437C63.6945 314.491 63.6648 314.539 63.622 314.574C63.5792 314.608 63.5257 314.627 63.4706 314.627C63.4154 314.627 63.362 314.608 63.3192 314.574C63.2763 314.539 63.2467 314.491 63.2353 314.437C61.3892 299.988 57.2886 285.918 51.0828 272.74C44.9857 259.824 37.2989 246.082 25.5439 237.527C19.1435 232.873 11.9483 229.819 4.77393 226.598C4.39743 226.473 4.65889 225.939 5.03538 226.065Z" fill="#EBEBEB"/>
<path d="M54.5026 280.667C49.9591 276.533 44.9755 272.91 39.6415 269.864C31.3377 265.252 24.5922 262.219 22.5319 258.193C20.4717 254.166 26.8825 248.937 26.8825 248.937C26.8825 248.937 18.4114 253.12 14.8974 250.035C11.3835 246.95 4 225.615 4 225.615C4 225.615 23.5673 232.57 35.772 246.678C47.9767 260.786 54.5026 280.667 54.5026 280.667Z" fill="#EBEBEB"/>
<path d="M38.2608 261.027C36.337 260.892 34.4053 261.13 32.5715 261.727C32.5715 261.727 32.5715 261.821 32.5715 261.811C34.4424 261.49 36.3325 261.295 38.2294 261.225C38.3654 261.225 38.3967 261.037 38.2608 261.027Z" fill="white"/>
<path d="M21.1934 238.645C20.3159 238.574 19.4326 238.623 18.5684 238.792C18.4743 238.792 18.5057 238.959 18.5684 238.948C19.4365 238.854 20.2836 238.886 21.1412 238.865C21.1678 238.866 21.194 238.858 21.2152 238.842C21.2365 238.825 21.2515 238.802 21.2576 238.776C21.2638 238.751 21.2608 238.723 21.2491 238.699C21.2374 238.675 21.2177 238.656 21.1934 238.645Z" fill="white"/>
<path d="M79.7386 341.408H35.5737L41.8695 295.276L43.4801 283.448H71.8322L73.4428 295.276L79.7386 341.408Z" fill="#DBDBDB"/>
<path d="M73.4428 295.276H41.8694L43.48 283.448H71.8322L73.4428 295.276Z" fill="#C7C7C7"/>
<path d="M75.8796 279.349H39.4223V289.368H75.8796V279.349Z" fill="#DBDBDB"/>
<path d="M7.49231 341.408L86.9851 341.157L166.478 341.063L325.463 340.885L484.449 341.063L563.942 341.157L643.434 341.408L563.942 341.669L484.449 341.753L325.463 341.931L166.478 341.753L86.9851 341.659L7.49231 341.408Z" fill="#263238"/>
<path d="M327.555 419.354C493.174 419.354 627.434 404.642 627.434 386.494C627.434 368.347 493.174 353.635 327.555 353.635C161.937 353.635 27.6769 368.347 27.6769 386.494C27.6769 404.642 161.937 419.354 327.555 419.354Z" fill="#EBEBEB"/>
<path d="M257.747 381.056C255.31 381.882 185.439 382.102 182.761 380.45C181.716 379.822 181.12 369.646 180.67 357.327C180.576 354.67 180.503 351.92 180.44 349.138L174.866 311.865L221.582 311.562L225.985 348.845L225.807 357.044C225.807 357.044 252.601 368.914 255.341 371.069C258.081 373.223 260.184 380.23 257.747 381.056Z" fill="#EB9481"/>
<path d="M257.747 381.056C255.31 381.882 185.439 382.102 182.762 380.449C181.528 379.675 180.858 364.814 180.482 349.138L225.933 348.845L225.755 357.044C225.755 357.044 252.549 368.914 255.289 371.068C258.029 373.223 260.184 380.23 257.747 381.056Z" fill="white"/>
<path d="M257.747 381.055C255.31 381.881 185.439 382.101 182.762 380.448C181.716 379.821 181.12 369.645 180.67 357.325L225.713 357.043C225.713 357.043 252.507 368.913 255.247 371.067C257.987 373.222 260.184 380.229 257.747 381.055Z" fill="#A6A6A6"/>
<path d="M256.732 378.264C245.019 378.013 197.748 378.128 186.15 378.776C186.056 378.776 186.056 378.839 186.15 378.849C197.758 379.341 245.03 378.849 256.732 378.452C256.983 378.441 256.983 378.264 256.732 378.264Z" fill="#263238"/>
<path d="M250.781 368.568C249.479 368.539 248.185 368.78 246.98 369.277C245.776 369.774 244.688 370.515 243.785 371.454C242.139 373.13 241.209 375.38 241.191 377.729C241.191 377.802 241.317 377.802 241.327 377.729C241.716 375.415 242.843 373.289 244.539 371.668C246.236 370.047 248.411 369.019 250.74 368.735C250.762 368.741 250.785 368.737 250.805 368.725C250.825 368.714 250.839 368.695 250.844 368.672C250.85 368.65 250.846 368.627 250.835 368.607C250.823 368.587 250.804 368.573 250.781 368.568Z" fill="#263238"/>
<path d="M230.294 358.194C225.609 358.141 220.181 359.815 217.274 363.663C217.169 363.81 217.378 363.966 217.514 363.893C221.608 361.733 225.92 360.015 230.378 358.769C230.447 358.75 230.506 358.706 230.546 358.647C230.585 358.587 230.601 358.515 230.59 358.444C230.58 358.373 230.544 358.309 230.49 358.263C230.435 358.217 230.366 358.192 230.294 358.194Z" fill="#263238"/>
<path d="M233.933 359.585C229.238 359.585 223.81 361.216 220.913 365.055C220.798 365.211 221.007 365.368 221.153 365.295C225.241 363.127 229.55 361.405 234.007 360.16C234.075 360.141 234.134 360.099 234.173 360.04C234.212 359.982 234.228 359.911 234.22 359.841C234.211 359.771 234.177 359.706 234.124 359.659C234.072 359.612 234.004 359.586 233.933 359.585Z" fill="#263238"/>
<path d="M237.552 360.985C232.867 360.985 227.439 362.606 224.532 366.455C224.427 366.601 224.637 366.758 224.773 366.685C228.866 364.524 233.178 362.807 237.636 361.561C237.705 361.542 237.765 361.498 237.804 361.439C237.843 361.379 237.859 361.307 237.849 361.236C237.838 361.165 237.803 361.101 237.748 361.055C237.693 361.008 237.624 360.984 237.552 360.985Z" fill="#263238"/>
<path d="M241.181 362.388C236.486 362.336 231.058 364.009 228.161 367.858C228.046 368.004 228.265 368.161 228.401 368.088C232.494 365.925 236.807 364.207 241.265 362.963C241.334 362.944 241.394 362.901 241.433 362.841C241.472 362.781 241.488 362.709 241.478 362.639C241.467 362.568 241.431 362.503 241.377 362.457C241.322 362.411 241.253 362.386 241.181 362.388Z" fill="#263238"/>
<path d="M189.1 367.637C183.87 367.637 183.87 375.846 189.1 375.815C194.329 375.784 194.37 367.605 189.1 367.637Z" fill="#263238"/>
<path d="M235.324 345.665C232.95 343.699 229.959 345.665 228.506 347.683C226.086 351.251 224.644 355.39 224.322 359.689C224.322 359.783 224.396 359.825 224.469 359.825C224.487 359.914 224.527 359.996 224.584 360.066C224.641 360.136 224.715 360.192 224.798 360.228C224.881 360.263 224.971 360.279 225.061 360.272C225.151 360.266 225.239 360.238 225.316 360.191C228.642 357.88 232.49 355.809 235.011 352.536C236.443 350.632 237.615 347.495 235.324 345.665ZM229.614 355.642C228.004 356.824 226.341 357.922 224.772 359.166C225.609 356.824 226.33 354.46 227.397 352.201C227.89 351.118 228.456 350.07 229.091 349.064C230.137 347.505 234.697 343.573 235.178 348.666C235.45 351.458 231.528 354.24 229.614 355.642Z" fill="#263238"/>
<path d="M212.651 361.467C216.729 362.074 220.944 360.903 224.95 360.265C225.037 360.242 225.117 360.199 225.184 360.14C225.252 360.081 225.305 360.006 225.338 359.923C225.372 359.839 225.385 359.749 225.378 359.66C225.37 359.57 225.342 359.484 225.295 359.407C225.31 359.395 225.322 359.38 225.331 359.363C225.339 359.346 225.344 359.327 225.344 359.308C225.344 359.289 225.339 359.27 225.331 359.252C225.322 359.235 225.31 359.22 225.295 359.208C222.076 356.338 218.159 354.365 213.937 353.488C211.469 353.017 207.976 353.697 207.662 356.761C207.286 359.648 210.266 361.091 212.651 361.467ZM209.806 358.811C206.669 354.795 212.661 354.45 214.46 354.868C215.627 355.16 216.773 355.531 217.89 355.977C220.178 356.925 222.415 357.99 224.594 359.167C222.607 359.365 220.651 359.721 218.675 359.993C216.311 360.307 211.563 361.018 209.806 358.811Z" fill="#263238"/>
<path d="M106.177 139.586C106.177 139.586 160.423 231.869 161.877 238.353C164.105 248.309 175.912 346.627 175.912 346.627L232.386 345.581C232.386 345.581 222.66 258.893 213.446 230.332C206.816 209.76 158.938 141.531 158.938 141.531L106.177 139.586Z" fill="#37474F"/>
<path d="M227.25 336.964C219.145 336.901 190.417 336.577 179.624 337.581C179.54 337.581 179.551 337.727 179.624 337.738C183.336 338.271 219.135 337.445 227.24 337.184C227.257 337.19 227.275 337.192 227.293 337.19C227.311 337.187 227.328 337.181 227.343 337.171C227.358 337.161 227.37 337.148 227.379 337.132C227.388 337.116 227.393 337.099 227.394 337.081C227.395 337.063 227.391 337.045 227.384 337.028C227.377 337.012 227.366 336.998 227.352 336.986C227.338 336.975 227.321 336.967 227.304 336.963C227.286 336.959 227.268 336.959 227.25 336.964Z" fill="#263238"/>
<path d="M115.432 148.057C118.987 153.632 122.752 159.091 126.371 164.623C129.989 170.155 133.629 175.688 137.216 181.21C144.369 192.365 151.342 203.594 158.132 214.896C161.447 220.134 164.282 225.661 166.604 231.409C168.723 237.158 170.316 243.088 171.362 249.125C172.471 255.181 173.203 261.299 173.882 267.417C174.58 273.922 175.308 280.43 176.068 286.942C177.553 300.266 179.042 313.59 180.534 326.913C180.712 328.545 180.889 330.176 181.057 331.818C181.057 332.059 180.649 332.101 180.618 331.818C178.955 318.589 177.574 305.307 176.068 292.077C175.315 285.475 174.566 278.875 173.82 272.28C173.119 266.141 172.45 259.991 171.498 253.894C170.625 247.876 169.296 241.933 167.524 236.115C165.571 230.092 162.954 224.304 159.722 218.859C153.186 207.575 146.262 196.489 139.339 185.393C132.416 174.297 125.304 163.107 118.004 152.146C117.105 150.797 116.195 149.448 115.254 148.12C115.181 148.047 115.369 147.953 115.432 148.057Z" fill="#263238"/>
<path d="M123.955 386.493C121.382 386.336 54.931 359.417 53.0904 356.865C53.0084 356.715 52.9721 356.544 52.9858 356.373C52.9858 354.083 57.5979 346.093 61.4465 335.593C61.687 334.923 63.4022 331.807 65.7762 327.613C72.3753 316.12 83.8793 296.322 83.8793 296.322L127.312 313.578L106.521 344.691L103.29 352.221C103.29 352.221 123.673 373.295 125.388 376.275C127.103 379.256 126.517 386.639 123.955 386.493Z" fill="#EB9481"/>
<path d="M123.955 386.493C121.382 386.336 54.931 359.417 53.0904 356.865C53.0084 356.715 52.9721 356.544 52.9858 356.373C52.9858 354.083 57.5979 346.093 61.4465 335.593C61.687 334.924 63.4022 331.807 65.7762 327.613L106.563 344.692L103.332 352.221C103.332 352.221 123.715 373.295 125.43 376.275C127.145 379.256 126.517 386.639 123.955 386.493Z" fill="white"/>
<path d="M123.955 386.494C121.383 386.337 54.9314 359.418 53.0907 356.866C52.3796 355.893 55.3497 346.826 61.4573 335.594L103.29 352.233C103.29 352.233 123.673 373.285 125.399 376.287C127.124 379.288 126.518 386.64 123.955 386.494Z" fill="#A6A6A6"/>
<path d="M124.059 383.524C113.298 378.901 69.4363 361.268 58.4447 357.524C58.3506 357.524 58.3297 357.524 58.4447 357.587C69.018 362.398 113.016 379.675 124.018 383.733C124.227 383.785 124.29 383.618 124.059 383.524Z" fill="#263238"/>
<path d="M122.177 372.303C120.984 371.779 119.695 371.508 118.391 371.508C117.088 371.508 115.799 371.779 114.605 372.303C112.46 373.242 110.759 374.973 109.857 377.134C109.857 377.197 109.952 377.25 109.983 377.187C111.216 375.182 113.065 373.63 115.254 372.764C117.444 371.899 119.854 371.766 122.125 372.386C122.142 372.382 122.158 372.37 122.167 372.355C122.177 372.339 122.18 372.321 122.177 372.303Z" fill="#263238"/>
<path d="M107.086 355.004C102.767 353.195 97.0986 352.714 92.9676 355.192C92.8107 355.286 92.9676 355.506 93.1036 355.496C97.7086 355.028 102.35 355.053 106.95 355.569C107.021 355.576 107.092 355.558 107.15 355.517C107.209 355.476 107.25 355.415 107.267 355.346C107.283 355.277 107.274 355.204 107.241 355.141C107.208 355.078 107.153 355.029 107.086 355.004Z" fill="#263238"/>
<path d="M109.921 357.661C105.601 355.852 99.933 355.371 95.802 357.849C95.6451 357.944 95.802 358.163 95.9379 358.153C100.543 357.68 105.185 357.705 109.785 358.226C109.855 358.234 109.927 358.215 109.985 358.174C110.043 358.133 110.084 358.073 110.101 358.003C110.118 357.934 110.108 357.861 110.075 357.798C110.042 357.735 109.987 357.687 109.921 357.661Z" fill="#263238"/>
<path d="M112.765 360.316C108.435 358.507 102.767 358.026 98.6463 360.505C98.479 360.599 98.6463 360.818 98.7718 360.808C103.377 360.336 108.019 360.36 112.618 360.881C112.691 360.893 112.765 360.878 112.826 360.838C112.888 360.798 112.932 360.737 112.95 360.666C112.969 360.595 112.96 360.52 112.926 360.455C112.891 360.39 112.834 360.341 112.765 360.316Z" fill="#263238"/>
<path d="M115.599 362.973C111.27 361.164 105.612 360.683 101.481 363.151C101.313 363.256 101.481 363.475 101.606 363.465C106.211 362.992 110.853 363.017 115.453 363.538C115.525 363.55 115.599 363.535 115.661 363.495C115.722 363.455 115.766 363.394 115.785 363.323C115.803 363.252 115.794 363.177 115.76 363.112C115.726 363.047 115.668 362.998 115.599 362.973Z" fill="#263238"/>
<path d="M65.3476 348.301C60.4636 346.356 57.4307 353.959 62.3356 355.904C67.2405 357.849 70.2839 350.246 65.3476 348.301Z" fill="#263238"/>
<path d="M116.446 345.278C114.972 342.569 111.489 343.239 109.366 344.588C105.79 346.984 102.905 350.276 101 354.136C100.991 354.153 100.987 354.172 100.987 354.19C100.986 354.209 100.99 354.228 100.999 354.245C101.007 354.262 101.018 354.277 101.033 354.289C101.048 354.301 101.065 354.309 101.083 354.314C101.083 354.659 101.313 355.067 101.721 354.983C105.685 354.073 110.025 353.603 113.581 351.511C115.62 350.298 117.837 347.84 116.446 345.278ZM107.4 352.379C105.465 352.871 103.52 353.268 101.606 353.833C103.189 351.925 104.868 350.1 106.637 348.363C107.507 347.534 108.433 346.765 109.408 346.062C110.924 345.016 116.656 343.082 115.191 347.987C114.386 350.695 109.711 351.793 107.4 352.379Z" fill="#263238"/>
<path d="M89.4957 351.417C93.0515 353.508 97.3916 354 101.345 354.92C101.753 355.014 102.025 354.606 101.993 354.251C102.013 354.249 102.032 354.242 102.048 354.23C102.064 354.219 102.077 354.203 102.085 354.185C102.093 354.168 102.097 354.148 102.096 354.128C102.094 354.108 102.088 354.089 102.077 354.073C100.175 350.205 97.2894 346.905 93.7103 344.504C91.6187 343.144 88.1152 342.464 86.6301 345.163C85.1451 347.861 87.4145 350.193 89.4957 351.417ZM87.8642 347.882C86.4105 342.977 92.1311 344.922 93.6476 345.978C94.6213 346.683 95.544 347.455 96.4085 348.29C98.1736 350.03 99.849 351.859 101.428 353.77C99.5146 353.205 97.5694 352.797 95.6346 352.306C93.292 351.678 88.659 350.632 87.8642 347.882Z" fill="#263238"/>
<path d="M109.899 342.956L61.2793 323.326C61.2793 323.326 121.56 234.693 122 228.094C122.397 222.258 95.9169 171.41 94.8815 156.591C93.752 140.59 101.449 128.218 109.92 120.531L160.067 141.856C160.067 141.856 154.776 150.316 146.472 155.033C146.472 155.033 172.188 213.808 170.724 231.88C169.26 249.951 109.899 342.956 109.899 342.956Z" fill="#37474F"/>
<path d="M112.053 333.712C105.025 330.69 107.086 331.453 100.016 328.483C96.5648 327.04 73.8705 317.596 70.3775 316.812C70.3043 316.812 70.252 316.916 70.3252 316.958C73.3476 318.809 96.2301 327.855 99.7127 329.236C106.835 332.039 104.816 331.16 111.97 333.879C111.98 333.894 111.995 333.905 112.011 333.912C112.027 333.919 112.045 333.922 112.063 333.921C112.081 333.919 112.098 333.913 112.112 333.903C112.127 333.893 112.139 333.879 112.147 333.863C112.155 333.847 112.159 333.83 112.158 333.812C112.157 333.794 112.152 333.777 112.142 333.762C112.133 333.746 112.12 333.734 112.104 333.725C112.089 333.717 112.071 333.712 112.053 333.712Z" fill="#263238"/>
<path d="M154.692 153.956C149.471 155.173 144.363 156.831 139.423 158.913C139.403 158.92 139.384 158.931 139.369 158.945C139.353 158.959 139.34 158.976 139.331 158.995C139.321 159.013 139.316 159.034 139.315 159.055C139.313 159.076 139.316 159.097 139.323 159.117C139.33 159.137 139.341 159.155 139.355 159.171C139.369 159.187 139.386 159.2 139.405 159.209C139.424 159.218 139.444 159.224 139.465 159.225C139.486 159.226 139.507 159.223 139.527 159.216C144.652 157.721 149.86 156.32 154.901 154.552C155.288 154.416 155.089 153.872 154.692 153.956Z" fill="#263238"/>
<path d="M148.721 151.928C148.233 152.795 147.804 153.692 147.434 154.616C147.073 155.316 146.85 156.079 146.775 156.864C146.775 157.021 146.984 157.052 147.079 156.958C147.603 156.331 148.027 155.625 148.334 154.867C148.762 154.04 149.202 153.225 149.61 152.378C149.892 151.76 149.045 151.363 148.721 151.928Z" fill="#263238"/>
<path d="M149.348 147.178C149.662 146.404 149.965 145.641 150.289 144.867C150.614 144.093 151.021 143.298 151.335 142.482C151.335 142.357 151.586 142.482 151.534 142.577C151.22 143.351 151.021 144.166 150.781 144.961C150.54 145.756 150.268 146.551 150.007 147.346C149.515 148.82 148.961 150.284 148.281 151.717C149.104 151.758 149.926 151.615 150.687 151.299C151.464 150.801 152.061 150.068 152.391 149.207C152.831 148.35 153.239 147.471 153.688 146.613C154.242 145.686 154.707 144.709 155.079 143.696C155.079 143.57 155.33 143.696 155.278 143.79C154.596 145.933 153.703 148.004 152.611 149.971C152.14 150.734 151.774 151.539 150.917 151.832C149.989 152.092 149.017 152.159 148.062 152.031C147.936 152.031 147.79 152.031 147.832 151.843C148.26 150.264 148.766 148.707 149.348 147.178Z" fill="#263238"/>
<path d="M147.214 156.946C149.003 160.721 150.571 164.486 152.234 168.251C153.897 172.016 155.372 175.655 156.867 179.399C159.858 186.95 162.536 194.647 164.889 202.407C166.05 206.256 167.127 210.136 168.089 214.047C169.149 217.946 169.925 221.917 170.411 225.928C170.83 229.932 170.475 233.98 169.365 237.85C168.211 241.676 166.731 245.395 164.941 248.967C163.843 251.226 163.477 250.923 164 249.783C165.495 246.541 169.417 236.721 169.135 228.469C168.906 224.519 168.296 220.6 167.315 216.767C166.402 212.813 165.373 208.892 164.23 205.001C162.002 197.325 159.356 189.805 156.637 182.296C155.11 178.113 153.5 173.93 151.931 169.746C150.362 165.563 148.793 161.715 147.036 157.092C146.984 156.904 147.162 156.831 147.214 156.946Z" fill="#263238"/>
<path d="M110.307 144.47C111.175 144.146 112.399 144.68 113.277 144.826C114.415 145.019 115.565 145.134 116.718 145.171C117.859 145.211 119.002 145.173 120.138 145.056C121.282 145.027 122.403 144.729 123.411 144.188C125.066 142.983 126.484 141.483 127.595 139.764C128.918 138.008 130.011 136.089 130.847 134.054C130.847 133.929 131.067 134.054 131.025 134.138C130.659 135.299 130.387 136.47 129.979 137.61C129.528 138.681 128.99 139.713 128.369 140.695C127.362 142.672 125.873 144.362 124.039 145.61C122.02 146.761 119.427 146.656 117.178 146.562C115.874 146.486 114.577 146.315 113.298 146.05C112.378 145.851 110.83 145.704 110.245 144.899C110.217 144.868 110.197 144.832 110.185 144.792C110.173 144.753 110.17 144.711 110.176 144.67C110.182 144.629 110.197 144.59 110.219 144.556C110.242 144.521 110.272 144.492 110.307 144.47Z" fill="#263238"/>
<path d="M75.157 314.028C83.1471 301.925 90.9907 289.723 98.688 277.425C106.385 265.126 113.978 252.733 121.466 240.246C123.254 237.265 125.315 234.295 126.465 230.99C127.72 227.403 127.009 223.921 125.879 220.407C123.746 213.996 121.253 207.711 118.412 201.582C115.609 195.401 112.587 189.325 109.617 183.228C106.647 177.131 103.541 171.107 101.25 164.748C99.1586 158.672 98.3115 152.376 99.9429 146.08C101.574 139.784 105.088 134.221 108.759 128.981C109.721 127.6 110.715 126.23 111.687 124.798C111.761 124.693 111.918 124.798 111.844 124.923C107.797 130.382 103.854 136.166 101.48 142.577C100.267 145.737 99.5883 149.077 99.4723 152.46C99.4525 155.894 99.9858 159.308 101.052 162.573C103.018 168.931 106.124 174.945 109.021 180.927C111.918 186.909 115.013 193.1 117.868 199.26C120.814 205.46 123.432 211.81 125.712 218.284C126.685 221.16 127.804 224.171 127.72 227.257C127.647 230.635 126.036 233.678 124.363 236.523C117.042 248.916 109.544 261.162 101.909 273.335C94.2746 285.509 86.4205 297.682 78.4723 309.73L75.4603 314.279C75.3034 314.468 75.0315 314.248 75.157 314.028Z" fill="#263238"/>
<path d="M162.849 85.4854C167.378 95.4207 190.25 109.11 200.959 110.585C208.656 111.631 232.062 112.007 240.083 110.784C249.495 109.341 242.3 83.9794 236.747 84.6383C221.478 86.4162 208.51 88.4032 204.431 88.4032C199.453 88.4032 172.523 79.7648 169.281 78.5412C161.333 75.5815 160.287 79.8484 162.849 85.4854Z" fill="#EB9481"/>
<path d="M162.996 88.1318C168.727 96.6134 187.771 110.481 187.771 110.481L190.417 104.624L199.171 85.2558C199.171 85.2558 181.674 79.7653 170.16 77.2553C168.805 76.9469 167.426 76.751 166.039 76.6696C158.687 76.2722 158.049 80.8111 162.996 88.1318Z" fill="#0B56A4"/>
<path d="M162.996 88.132C168.727 96.6136 187.771 110.481 187.771 110.481L190.417 104.625C183.316 96.373 172.345 83.8755 166.039 76.6907C158.687 76.2724 158.049 80.8112 162.996 88.132Z" fill="#263238"/>
<path d="M184.341 106.549C185.795 102.983 192.258 88.6236 193.868 85.6325C193.973 85.4234 194.14 85.4443 194.046 85.6325C191.243 92.7733 188.052 99.7558 184.487 106.549C184.446 106.674 184.278 106.633 184.341 106.549Z" fill="#263238"/>
<path d="M233.944 84.9007C243.231 83.6875 254.724 81.6064 264.461 85.7374C265.555 86.1663 266.472 86.951 267.065 87.9649C271.458 89.7428 271.939 92.3469 271.939 92.3469C275.526 95.2543 275.651 97.9944 275.651 97.9944C275.651 97.9944 280.797 100.086 280.012 103.454C279.155 107.177 272.106 103.454 266.981 103.757C255.216 104.489 238.744 108.808 235.345 109.352L233.944 84.9007Z" fill="#EB9481"/>
<path d="M254.118 95.8608C257.558 95.6255 261.01 95.6255 264.45 95.8608C268.197 96.3308 271.903 97.0825 275.536 98.1093C275.56 98.1176 275.586 98.1163 275.608 98.1055C275.631 98.0947 275.648 98.0754 275.656 98.0518C275.665 98.0282 275.663 98.0023 275.652 97.9798C275.642 97.9572 275.622 97.9399 275.599 97.9315C268.773 95.2533 261.342 94.5009 254.118 95.7562C253.95 95.7353 253.95 95.8713 254.118 95.8608Z" fill="#263238"/>
<path d="M251.932 84.9942C257.674 85.287 261.261 86.2073 267.034 87.9434V87.8806C260.675 85.2242 258.071 84.9732 251.901 84.7432C251.702 84.8268 251.713 84.9942 251.932 84.9942Z" fill="#263238"/>
<path d="M252.863 105.533C251.367 106.234 251.734 107.018 254.589 107.677C257.444 108.336 269.314 108.535 268.895 112.676C268.477 116.818 251.733 116.295 247.059 114.831C242.384 113.366 235.345 109.35 235.345 109.35C238.661 108.796 246.442 106.694 252.863 105.533Z" fill="#EB9481"/>
<path d="M175.284 101.32C175.21 103.108 175.043 104.928 174.792 106.737C174.792 106.664 174.792 106.601 174.865 106.538C175.21 105.597 175.556 104.635 175.974 103.725C175.974 103.725 176.078 103.725 176.068 103.725C175.867 104.722 175.566 105.696 175.169 106.633C174.98 107.082 174.803 107.521 174.604 107.961C174.478 108.766 174.332 109.561 174.175 110.356C173.861 111.851 172.449 118.21 172.083 119.287C172.021 119.507 171.749 119.454 171.77 119.203C171.843 118.032 173.025 111.412 173.265 109.906C173.732 106.998 174.357 104.118 175.137 101.278C175.19 101.226 175.294 101.267 175.284 101.32Z" fill="#263238"/>
<path d="M164.407 148.874C161.615 150.307 158.018 152.534 141.807 149.344C140.761 149.135 139.778 148.884 138.754 148.581C123.558 144.021 105.287 126.148 104.294 124.883C104.294 124.883 128.442 85.7377 159.325 73.4284C163.142 71.9119 169.459 74.8402 172.92 78.4901C174.165 79.7974 176.874 89.4085 175.838 97.1894C174.803 104.97 167.189 147.441 164.407 148.874Z" fill="#0B56A4"/>
<path d="M162.232 96.833C162.348 98.4872 162.117 100.147 161.552 101.707C161.419 100.052 161.651 98.3882 162.232 96.833Z" fill="white"/>
<path d="M151.701 123.49C151.768 124.313 151.74 125.142 151.617 125.958C151.517 126.781 151.317 127.589 151.021 128.364C150.949 127.537 150.977 126.705 151.105 125.885C151.212 125.067 151.412 124.263 151.701 123.49Z" fill="white"/>
<path d="M133.807 103.337C133.925 104.995 133.693 106.658 133.127 108.221C132.996 106.563 133.228 104.896 133.807 103.337Z" fill="white"/>
<path d="M169.124 122.131C169.191 122.958 169.163 123.789 169.04 124.609C168.94 125.432 168.74 126.24 168.444 127.015C168.372 126.188 168.4 125.356 168.528 124.536C168.634 123.714 168.834 122.907 169.124 122.131Z" fill="white"/>
<path d="M146.147 99.8866C146.97 99.8165 147.798 99.8411 148.616 99.9598C149.439 100.064 150.247 100.268 151.021 100.566C149.367 100.685 147.706 100.454 146.147 99.8866Z" fill="white"/>
<path d="M125.837 119.141C127.492 119.024 129.152 119.256 130.711 119.82C129.056 119.953 127.393 119.721 125.837 119.141Z" fill="white"/>
<path d="M149.766 139.982C151.42 139.864 153.081 140.095 154.639 140.662C152.984 140.793 151.321 140.561 149.766 139.982Z" fill="white"/>
<path d="M119.573 132.411C121.227 132.295 122.887 132.526 124.447 133.091C122.792 133.222 121.129 132.99 119.573 132.411Z" fill="white"/>
<path d="M162.075 78.0919C163.729 77.9752 165.389 78.2068 166.948 78.7717C165.294 78.8883 163.634 78.6567 162.075 78.0919Z" fill="white"/>
<path d="M156.167 84.7637C155.638 85.3992 155.034 85.9682 154.368 86.4579C153.72 86.959 153.018 87.3869 152.276 87.7338C152.801 87.1023 153.398 86.5338 154.054 86.0396C154.708 85.5365 155.417 85.1086 156.167 84.7637Z" fill="white"/>
<path d="M123.965 103.725C123.43 104.355 122.823 104.92 122.156 105.408C121.515 105.919 120.812 106.348 120.065 106.684C120.603 106.057 121.209 105.492 121.874 105.001C122.517 104.492 123.219 104.064 123.965 103.725Z" fill="white"/>
<path d="M164.178 112.28C163.643 112.914 163.036 113.482 162.368 113.975C161.726 114.483 161.023 114.911 160.277 115.25C160.812 114.617 161.419 114.048 162.086 113.556C162.733 113.053 163.434 112.625 164.178 112.28Z" fill="white"/>
<path d="M138.136 128.678C137.601 129.311 136.994 129.88 136.327 130.372C135.683 130.879 134.981 131.307 134.235 131.648C134.77 131.015 135.378 130.446 136.045 129.954C136.691 129.45 137.393 129.022 138.136 128.678Z" fill="white"/>
<path d="M174.154 89.8779C173.619 90.5113 173.012 91.0799 172.345 91.5722C171.697 92.0733 170.996 92.5012 170.253 92.8481C170.788 92.2147 171.396 91.6461 172.063 91.1538C172.707 90.6469 173.409 90.2186 174.154 89.8779Z" fill="white"/>
<path d="M173.611 108.88C172.977 108.345 172.409 107.738 171.917 107.071C171.408 106.429 170.979 105.726 170.641 104.979C171.276 105.508 171.845 106.112 172.335 106.778C172.835 107.431 173.262 108.136 173.611 108.88Z" fill="white"/>
<path d="M115.568 121.975C114.935 121.44 114.366 120.833 113.874 120.166C113.37 119.519 112.942 118.818 112.598 118.074C113.231 118.609 113.8 119.216 114.292 119.883C114.799 120.528 115.227 121.23 115.568 121.975Z" fill="white"/>
<path d="M166.552 137.547C165.916 137.018 165.347 136.414 164.857 135.748C164.356 135.1 163.928 134.398 163.581 133.656C164.215 134.191 164.783 134.798 165.276 135.466C165.78 136.107 166.209 136.806 166.552 137.547Z" fill="white"/>
<path d="M141.002 93.1512C140.369 92.6199 139.8 92.0161 139.307 91.3524C138.808 90.7029 138.381 90.0017 138.032 89.2607C138.667 89.7894 139.236 90.3935 139.726 91.0596C140.225 91.709 140.653 92.4103 141.002 93.1512Z" fill="white"/>
<path d="M141.452 146.416C140.818 145.881 140.25 145.273 139.757 144.606C139.256 143.959 138.828 143.257 138.482 142.515C139.117 143.043 139.686 143.647 140.176 144.313C140.679 144.964 141.107 145.669 141.452 146.416Z" fill="white"/>
<path d="M145.791 114.998C145.164 114.46 144.599 113.853 144.108 113.188C143.597 112.547 143.168 111.844 142.832 111.097C143.462 111.632 144.027 112.239 144.516 112.906C145.024 113.549 145.452 114.251 145.791 114.998Z" fill="white"/>
<path d="M167.263 88.9158C163.32 88.1837 159.618 80.0368 159.147 74.5567C159.147 74.1802 160.988 71.1996 163.09 67.466C164.366 65.1966 165.715 62.6344 166.792 60.2081C167.012 59.7165 168.298 61.3794 168.298 61.3794L171.101 63.471L180.357 70.5721C178.153 73.2169 176.281 76.1214 174.782 79.2211C174.634 79.5569 174.522 79.9075 174.448 80.2669C174.444 80.3261 174.444 80.3855 174.448 80.4447C173.872 82.5154 171.059 89.6165 167.263 88.9158Z" fill="#EB9481"/>
<path d="M174.447 80.3196C174.443 80.3788 174.443 80.4382 174.447 80.4974C173.898 80.3363 173.363 80.1299 172.847 79.8804C162.713 75.1324 167.179 61.5576 167.179 61.5576L171.153 63.5238L180.409 70.6249C178.205 73.2696 176.333 76.1742 174.834 79.2738C174.668 79.6076 174.539 79.9582 174.447 80.3196Z" fill="#263238"/>
<path d="M190.992 41.6758C190.992 41.6758 195.625 44.6145 195.646 49.8436C195.667 55.0727 193.554 60.1868 193.115 60.375C192.676 60.5633 190.992 41.6758 190.992 41.6758Z" fill="#263238"/>
<path d="M168.005 44.395C165.223 49.8855 165.369 67.1938 168.841 71.649C173.882 78.1122 183.587 80.3398 189.455 73.9498C195.133 67.7586 194.548 45.2107 190.5 41.0065C184.612 34.7944 172.125 36.269 168.005 44.395Z" fill="#EB9481"/>
<path d="M182.772 58.2529C182.772 58.2529 182.678 58.3157 182.689 58.3575C182.751 59.5393 182.626 60.8989 181.57 61.3172C181.57 61.3172 181.57 61.3904 181.57 61.3799C182.877 61.1708 183.023 59.3615 182.772 58.2529Z" fill="#263238"/>
<path d="M181.695 57.0509C179.792 56.9464 179.729 60.7532 181.496 60.8473C183.264 60.9414 183.285 57.1346 181.695 57.0509Z" fill="#263238"/>
<path d="M189.225 58.2109C189.225 58.2109 189.319 58.2109 189.319 58.3155C189.256 59.4973 189.392 60.8569 190.459 61.2647C190.459 61.2647 190.459 61.3379 190.459 61.3275C189.141 61.1288 188.984 59.3195 189.225 58.2109Z" fill="#263238"/>
<path d="M190.302 56.9986C192.195 56.8836 192.289 60.6904 190.532 60.795C188.775 60.8996 188.712 57.0928 190.302 56.9986Z" fill="#263238"/>
<path d="M180.502 54.1533C181.002 54.0111 181.494 53.8436 181.977 53.6513C182.526 53.5519 183.027 53.2722 183.399 52.8565C183.49 52.7043 183.527 52.5265 183.507 52.3507C183.486 52.1749 183.408 52.0108 183.284 51.8839C183.001 51.6687 182.666 51.533 182.313 51.4907C181.96 51.4485 181.602 51.5011 181.276 51.6434C180.57 51.8323 179.96 52.2756 179.561 52.8879C179.481 53.0336 179.445 53.199 179.457 53.3646C179.468 53.5301 179.527 53.6889 179.626 53.8221C179.725 53.9553 179.861 54.0573 180.016 54.116C180.171 54.1747 180.34 54.1877 180.502 54.1533Z" fill="#263238"/>
<path d="M191.599 55.8378C191.09 55.724 190.587 55.5844 190.093 55.4194C189.542 55.3465 189.03 55.0927 188.639 54.6978C188.538 54.5524 188.49 54.3771 188.501 54.2006C188.512 54.024 188.583 53.8565 188.702 53.7252C188.971 53.4946 189.298 53.3409 189.648 53.2801C189.998 53.2194 190.357 53.2539 190.689 53.3801C191.404 53.5283 192.038 53.9387 192.467 54.5305C192.556 54.6705 192.603 54.8337 192.602 54.9999C192.6 55.1662 192.551 55.3285 192.459 55.467C192.367 55.6055 192.236 55.7143 192.084 55.7802C191.931 55.846 191.763 55.866 191.599 55.8378Z" fill="#263238"/>
<path d="M180.095 69.432C180.377 69.7144 180.649 70.0909 181.078 70.1327C181.517 70.1325 181.952 70.0398 182.354 69.8608C182.354 69.8608 182.427 69.8608 182.354 69.9235C182.182 70.1534 181.952 70.3323 181.686 70.441C181.421 70.5497 181.131 70.5841 180.848 70.5406C180.609 70.4754 180.394 70.3416 180.231 70.1557C180.067 69.9698 179.962 69.74 179.927 69.4948C179.919 69.4726 179.92 69.448 179.93 69.4264C179.939 69.4048 179.957 69.388 179.98 69.3797C180.002 69.3714 180.026 69.3722 180.048 69.382C180.07 69.3918 180.086 69.4098 180.095 69.432Z" fill="#263238"/>
<path d="M186.934 64.3921C186.934 64.3921 186.987 66.1491 186.934 66.9753C185.327 66.8047 183.704 66.8611 182.113 67.1426C181.737 67.2263 181.779 66.923 182.207 66.7243C183.489 66.1384 184.917 65.949 186.307 66.1804C186.391 65.9608 186.171 63.4613 186.307 63.4718C186.94 63.596 187.552 63.8071 188.127 64.0993C188.127 60.418 187.541 56.7785 187.593 53.0972C187.593 52.9717 187.792 52.9508 187.813 53.0972C188.556 56.9916 188.907 60.9507 188.859 64.915C188.869 65.3647 187.248 64.5594 186.934 64.3921Z" fill="#263238"/>
<path d="M184.581 66.3474C184.164 67.444 183.391 68.3686 182.385 68.9724C180.806 69.6104 180.293 68.1776 181.883 66.8808C182.716 66.4594 183.65 66.2749 184.581 66.3474Z" fill="#263238"/>
<path d="M182.939 68.6469C182.772 68.7829 182.585 68.8922 182.385 68.9711C180.931 69.5568 180.356 68.3959 181.527 67.2246C182.322 67.2874 183.232 67.5802 182.939 68.6469Z" fill="#FF99BA"/>
<path d="M167.21 59.1942C169.124 59.7798 171.32 54.0278 171.948 51.8734C172.492 49.9282 173.119 43.7474 173.213 43.3186C173.307 42.8898 181.58 48.7883 186.37 47.3869C191.159 45.9855 194.412 41.6453 194.485 39.6269C194.558 37.6085 188.566 32.4839 183.389 32.2225C178.212 31.961 171.195 38.4974 171.195 38.4974C172.042 37.5355 172.812 36.5073 173.496 35.4227C173.412 35.1926 170.065 36.5313 169.448 38.9157C169.448 38.9157 170.118 35.9142 169.867 35.8619C169.616 35.8096 167.011 38.3719 167.597 40.3171C167.597 40.3171 164.585 42.9212 164.313 45.7763C164.041 48.6314 164.962 58.5039 167.21 59.1942Z" fill="#263238"/>
<path d="M189.8 46.2985C188.375 47.0709 186.841 47.621 185.25 47.93C183.465 48.0892 181.668 47.8017 180.021 47.0933C178.362 46.4525 176.822 45.5407 175.462 44.3951C174.259 43.412 173.182 42.2093 171.895 41.3308C171.571 41.1008 171.205 41.5714 171.404 41.8642C173.55 44.8956 176.616 47.1547 180.147 48.3065C181.787 48.8412 183.537 48.9411 185.228 48.5965C186.918 48.2518 188.49 47.4744 189.789 46.3403C189.789 46.3403 189.821 46.2985 189.8 46.2985Z" fill="#263238"/>
<path d="M169.208 58.681C169.208 58.681 166.238 52.6571 163.56 53.6297C160.883 54.6023 162.515 62.9375 165.265 64.4644C165.602 64.6824 165.979 64.8301 166.375 64.8986C166.77 64.9672 167.175 64.9552 167.566 64.8634C167.957 64.7716 168.325 64.6019 168.648 64.3644C168.972 64.1269 169.244 63.8265 169.448 63.4813L169.208 58.681Z" fill="#EB9481"/>
<path d="M164.094 56.0049C164.094 56.0049 164.031 56.0049 164.094 56.0886C165.997 57.218 166.771 59.226 167.232 61.3176C167.145 61.0962 167.011 60.8963 166.84 60.7316C166.668 60.5669 166.463 60.4414 166.238 60.3639C166.013 60.2863 165.774 60.2585 165.538 60.2823C165.301 60.3061 165.073 60.3811 164.868 60.5019C164.805 60.5019 164.868 60.617 164.868 60.617C165.242 60.5588 165.625 60.618 165.964 60.7866C166.303 60.9552 166.581 61.2248 166.761 61.5582C167.06 62.1167 167.299 62.7057 167.472 63.3152C167.535 63.5139 167.88 63.4616 167.849 63.242C168.298 60.6379 166.834 56.6951 164.094 56.0049Z" fill="#263238"/>
<path d="M149.599 85.5793C147.507 97.4285 160.35 137.347 168.58 144.804C180.827 155.89 203.469 163.179 211.678 165.553C215.255 166.599 225.149 141.426 221.53 139.763C213.78 136.239 189.706 128.709 187.415 126.826C185.125 124.944 171.32 105 165.171 93.5171C156.94 78.0599 150.634 79.5868 149.599 85.5793Z" fill="#EB9481"/>
<path d="M215.433 137.546C215.433 137.546 226.121 140.275 233.013 142.378C236.862 143.559 243.283 146.163 245.72 148.318C249.359 151.549 262.516 167.362 258.751 170.636C255.341 173.606 245.762 158.577 245.762 158.577C245.762 158.577 256.764 172.884 252.037 175.697C247.309 178.511 238.661 160.094 238.661 160.094C238.661 160.094 249.631 175.049 244.266 177.172C240.208 178.772 231.507 162.531 231.507 162.531C231.507 162.531 240.857 175.446 236.736 177.277C232.197 179.305 223.235 164.81 223.235 164.81C212.024 167.707 205.456 164.497 201.137 161.673C200.122 160.983 215.433 137.546 215.433 137.546Z" fill="#EB9481"/>
<path d="M242.268 153.38C243.628 155.011 245.008 156.664 246.211 158.41C247.414 160.157 248.554 161.955 249.589 163.806C250.992 166.201 252.115 168.748 252.936 171.399C251.137 166.797 246.922 160.47 245.72 158.724C244.517 156.977 243.398 155.168 242.206 153.421C242.174 153.38 242.237 153.338 242.268 153.38Z" fill="#263238"/>
<path d="M235.879 157.616C238.2 159.456 243.063 166.296 244.935 170.887C245.019 171.075 244.935 171.065 244.799 170.887C243.335 168.618 237.395 159.833 235.826 157.647C235.795 157.616 235.847 157.584 235.879 157.616Z" fill="#263238"/>
<path d="M229.74 160.294C232.624 163.32 234.903 166.87 236.454 170.752C236.527 170.94 236.38 170.909 236.265 170.752C234.101 167.228 232.427 164.477 229.624 160.388C229.583 160.294 229.677 160.2 229.74 160.294Z" fill="#263238"/>
<path d="M161.27 86.4484C151.722 72.9468 146.012 77.9458 147.926 92.6082C149.724 106.319 154.525 122.655 154.525 122.655L178.579 110.983C178.579 110.983 167.346 95.0973 161.27 86.4484Z" fill="#0B56A4"/>
<path d="M167.075 91.7607C167.392 92.5233 167.62 93.3199 167.754 94.1348C167.901 94.9522 167.954 95.7839 167.911 96.6133C167.597 95.8468 167.373 95.0467 167.242 94.2289C167.086 93.416 167.03 92.5872 167.075 91.7607Z" fill="white"/>
<path d="M152.819 99.9699C154.354 99.3456 156.006 99.0602 157.662 99.1333C156.899 99.4469 156.102 99.6715 155.288 99.8026C154.475 99.9578 153.646 100.014 152.819 99.9699Z" fill="white"/>
<path d="M153.437 78.9707C152.789 80.4991 151.823 81.8718 150.603 82.9971C151.25 81.4687 152.217 80.096 153.437 78.9707Z" fill="white"/>
<path d="M173.82 106.277C173.502 107.042 173.099 107.769 172.617 108.442C172.148 109.124 171.6 109.749 170.986 110.304C171.633 108.775 172.599 107.403 173.82 106.277Z" fill="white"/>
<path d="M157.086 114.465C156.32 114.151 155.593 113.748 154.922 113.262C154.239 112.794 153.614 112.246 153.06 111.631C154.588 112.279 155.961 113.245 157.086 114.465Z" fill="white"/>
<path d="M164.407 90.5166C165.693 92.284 167.022 94.0096 168.339 95.7457C168.005 94.8672 167.712 93.9783 167.461 93.0789H167.524C167.785 93.7691 168.088 94.4489 168.339 95.1705L168.716 96.2163C168.748 96.2877 168.776 96.3611 168.8 96.4359C169.845 97.7851 170.891 99.1342 171.853 100.515C173.035 102.167 174.175 103.84 175.326 105.514C176.476 107.187 177.637 109.268 178.881 110.952C178.996 111.098 176.79 111.998 176.549 112.113C176.309 112.228 176.183 112.029 176.413 111.956C176.643 111.883 178.4 110.806 178.421 110.785C177.271 109.09 175.943 107.532 174.74 105.89C173.537 104.248 172.345 102.606 171.184 100.943C168.831 97.555 166.677 94.041 164.334 90.6421L164.407 90.5166Z" fill="#263238"/>
<path d="M148.49 102.312C148.856 103.023 149.254 103.723 149.536 104.456L149.933 105.365C149.379 102.761 148.888 100.136 148.312 97.5322C149.421 101.716 150.54 105.993 151.565 110.239C152.537 114.297 153.719 118.396 154.284 122.538C155.013 122.218 155.769 121.962 156.543 121.774C155.766 122.277 154.93 122.681 154.054 122.977C152.793 118.766 151.746 114.493 150.916 110.176C150.655 109.005 150.414 107.834 150.163 106.662C149.892 105.951 149.567 105.271 149.243 104.571C148.919 103.87 148.626 103.086 148.333 102.343C148.396 102.301 148.469 102.259 148.49 102.312Z" fill="#263238"/>
<path d="M154.88 118.617C158.227 116.735 172.209 109.498 175.336 108.159C175.556 108.065 175.671 108.159 175.451 108.305C168.814 112.162 161.971 115.653 154.953 118.763C154.87 118.784 154.786 118.669 154.88 118.617Z" fill="#263238"/>
<path d="M538.1 393.564H219.46L265.528 132.266H584.168L538.1 393.564Z" fill="#0B56A4"/>
<path d="M374.586 105.199H270.307L265.528 132.265H377.127L374.586 105.199Z" fill="#0B56A4"/>
<g opacity="0.1">
<path d="M538.1 393.564H219.459L265.528 132.266H584.168L538.1 393.564Z" fill="black"/>
<path d="M374.586 105.199H270.307L265.528 132.265H377.127L374.586 105.199Z" fill="black"/>
</g>
<path d="M259.054 116.243C258.357 113.25 258.357 110.137 259.054 107.145C259.752 110.137 259.752 113.25 259.054 116.243Z" fill="#263238"/>
<path d="M249.789 118.921C248.724 117.817 247.806 116.58 247.059 115.24C246.275 113.928 245.66 112.523 245.229 111.057C246.297 112.154 247.215 113.389 247.958 114.727C248.741 116.044 249.355 117.453 249.789 118.921Z" fill="#263238"/>
<path d="M243.095 125.875C240.156 124.982 237.462 123.426 235.22 121.326C236.686 121.752 238.092 122.364 239.403 123.146C240.743 123.898 241.983 124.815 243.095 125.875Z" fill="#263238"/>
<path d="M240.752 135.246C237.759 135.943 234.646 135.943 231.654 135.246C234.646 134.548 237.759 134.548 240.752 135.246Z" fill="#263238"/>
<path d="M243.472 144.511C242.363 145.57 241.126 146.487 239.791 147.24C238.479 148.022 237.073 148.634 235.607 149.06C236.712 147.995 237.949 147.078 239.289 146.33C240.598 145.545 242.004 144.933 243.472 144.511Z" fill="#263238"/>
<path d="M250.416 151.195C249.526 154.138 247.969 156.837 245.867 159.081C246.293 157.613 246.908 156.207 247.697 154.898C248.443 153.553 249.356 152.309 250.416 151.195Z" fill="#263238"/>
<path d="M259.787 153.507C260.151 154.995 260.327 156.524 260.31 158.056C260.332 159.589 260.156 161.118 259.787 162.605C259.412 161.119 259.236 159.589 259.264 158.056C259.246 156.524 259.422 154.995 259.787 153.507Z" fill="#263238"/>
<path d="M269.052 150.88C270.117 151.984 271.034 153.222 271.782 154.562C272.567 155.871 273.179 157.277 273.601 158.745C271.499 156.501 269.942 153.803 269.052 150.859V150.88Z" fill="#263238"/>
<path d="M275.735 143.874C277.203 144.296 278.609 144.908 279.918 145.694C281.258 146.441 282.495 147.358 283.599 148.423C282.132 148.001 280.726 147.389 279.416 146.604C278.076 145.856 276.839 144.939 275.735 143.874Z" fill="#263238"/>
<path d="M278.046 134.503C281.043 133.806 284.159 133.806 287.156 134.503C284.159 135.2 281.043 135.2 278.046 134.503Z" fill="#263238"/>
<path d="M275.369 125.238C276.477 124.179 277.714 123.266 279.051 122.519C280.358 121.725 281.764 121.11 283.234 120.688C280.99 122.791 278.292 124.347 275.349 125.238H275.369Z" fill="#263238"/>
<path d="M268.415 118.555C268.845 117.09 269.457 115.685 270.234 114.372C270.982 113.032 271.899 111.795 272.964 110.69C272.542 112.158 271.93 113.564 271.144 114.874C270.397 116.213 269.48 117.451 268.415 118.555Z" fill="#263238"/>
<path d="M537.629 393.562H218.309L172.962 141.75H492.293L537.629 393.562Z" fill="#0B56A4"/>
<path d="M283.621 295.685C290.95 295.685 296.892 289.743 296.892 282.413C296.892 275.083 290.95 269.142 283.621 269.142C276.291 269.142 270.349 275.083 270.349 282.413C270.349 289.743 276.291 295.685 283.621 295.685Z" fill="white"/>
<path d="M388.537 295.685C395.867 295.685 401.808 289.743 401.808 282.413C401.808 275.083 395.867 269.142 388.537 269.142C381.207 269.142 375.266 275.083 375.266 282.413C375.266 289.743 381.207 295.685 388.537 295.685Z" fill="white"/>
<path d="M355.144 297.809L354.412 296.418C354.349 296.292 347.489 283.617 333.694 283.617C321.144 283.617 318.007 295.55 317.923 296.062L317.547 297.579L314.503 296.847L314.869 295.32C314.869 295.173 318.613 280.479 333.694 280.479C349.382 280.479 356.88 294.368 357.194 294.964L357.926 296.345L355.144 297.809Z" fill="white"/>
<path d="M516.546 281.399L516.326 280.353C517.006 280.207 517.675 280.05 518.345 279.872L518.606 280.918C517.895 281.096 517.236 281.253 516.546 281.399Z" fill="#263238"/>
<path d="M522.653 279.716L522.319 278.733C523.626 278.283 524.933 277.791 526.199 277.258L526.607 278.22C525.32 278.764 523.992 279.266 522.653 279.716ZM530.445 276.379L529.974 275.459C531.198 274.821 532.421 274.131 533.582 273.367L534.126 274.256C532.934 275.083 531.689 275.783 530.445 276.379ZM537.64 271.956L537.023 271.109C538.152 270.282 539.24 269.414 540.265 268.525L540.955 269.31C539.857 270.261 538.811 271.15 537.63 271.997L537.64 271.956ZM544.02 266.392L543.256 265.67C544.218 264.624 545.128 263.579 545.965 262.533L546.791 263.171C545.923 264.321 544.992 265.398 544.04 266.434L544.02 266.392ZM549.196 259.699L548.307 259.144C549.03 257.976 549.673 256.76 550.232 255.505L551.194 255.934C550.603 257.242 549.932 258.514 549.186 259.74L549.196 259.699ZM552.658 251.939L551.612 251.646C551.994 250.334 552.277 248.995 552.459 247.64L553.505 247.776C553.332 249.198 553.045 250.604 552.648 251.98L552.658 251.939ZM553.819 243.572H552.773V243.269C552.773 242.003 552.7 240.717 552.574 239.452L553.62 239.347C553.758 240.65 553.827 241.959 553.829 243.269L553.819 243.572ZM551.936 235.383C551.655 234.035 551.306 232.702 550.891 231.388L551.936 231.075C552.365 232.434 552.731 233.815 552.982 235.164L551.936 235.383ZM549.458 227.508C548.956 226.274 548.412 225.009 547.743 223.733L548.684 223.262C549.322 224.559 549.907 225.856 550.42 227.111L549.458 227.508ZM545.797 220.052C545.149 218.912 544.438 217.709 543.706 216.475L544.595 215.921C545.358 217.165 546.08 218.378 546.686 219.539L545.797 220.052ZM541.426 212.95C540.662 211.8 539.889 210.639 539.094 209.478L539.962 208.893C540.757 210.054 541.53 211.214 542.294 212.386L541.426 212.95ZM536.72 206.027C535.935 204.877 535.141 203.716 534.367 202.565L535.235 201.98C536.009 203.13 536.793 204.291 537.577 205.431L536.72 206.027ZM532.045 199.062C531.281 197.891 530.539 196.698 529.807 195.506L530.696 194.962C531.428 196.155 532.17 197.326 532.923 198.497L532.045 199.062ZM527.684 191.877C526.973 190.612 526.314 189.357 525.718 188.154L526.659 187.683C527.245 188.876 527.903 190.11 528.594 191.365L527.684 191.877ZM523.971 184.347C523.417 183.04 522.925 181.712 522.465 180.415L523.511 180.08C523.95 181.346 524.442 182.653 524.986 183.939L523.971 184.347ZM521.252 176.368C520.907 175.008 520.604 173.617 520.374 172.184L521.419 172.017C521.649 173.356 521.932 174.715 522.277 176.054L521.252 176.368ZM519.851 168.001C519.746 166.715 519.694 165.418 519.694 164.121V163.776H520.74V164.111C520.74 165.376 520.74 166.652 520.896 167.907L519.851 168.001ZM520.896 159.635L519.851 159.53C519.851 159.248 519.903 158.955 519.934 158.652C520.06 157.532 520.217 156.413 520.405 155.347L521.451 155.525C521.273 156.57 521.116 157.668 520.991 158.767C521.032 159.091 521.032 159.373 520.949 159.666L520.896 159.635ZM522.35 151.498L521.304 151.216C521.691 149.835 522.141 148.486 522.643 147.2L523.616 147.576C523.14 148.871 522.735 150.191 522.402 151.529L522.35 151.498ZM574.463 145.401C573.878 145.401 573.271 145.317 572.675 145.234C571.859 145.119 571.043 144.983 570.238 144.826L570.447 143.78C571.221 143.926 572.027 144.062 572.821 144.177C573.386 144.251 573.961 144.303 574.516 144.334L574.463 145.401ZM578.762 145.077L578.542 144.031C579.855 143.76 581.113 143.272 582.265 142.588L582.809 143.477C581.577 144.239 580.227 144.79 578.814 145.108L578.762 145.077ZM525.362 143.832L524.431 143.341C525.097 142.093 525.834 140.885 526.638 139.722L527.496 140.318C526.731 141.457 526.036 142.641 525.414 143.864L525.362 143.832ZM566.149 143.769C564.799 143.341 563.472 142.842 562.175 142.274L562.604 141.312C563.861 141.87 565.149 142.356 566.463 142.766L566.149 143.769ZM586.02 140.507L585.152 139.921C585.896 138.841 586.337 137.58 586.428 136.271L587.473 136.344C587.385 137.844 586.893 139.293 586.051 140.538L586.02 140.507ZM558.41 140.35C557.186 139.638 556.003 138.86 554.865 138.017L555.482 137.181C556.589 137.998 557.741 138.752 558.933 139.44L558.41 140.35ZM530.068 137.087L529.294 136.386C530.241 135.333 531.251 134.338 532.317 133.405L533.007 134.19C531.981 135.108 531.01 136.086 530.1 137.118L530.068 137.087ZM551.602 135.319C550.56 134.36 549.572 133.344 548.642 132.276L549.426 131.586C550.332 132.623 551.292 133.611 552.302 134.545L551.602 135.319ZM585.643 132.485C585.044 131.29 584.216 130.224 583.206 129.348L583.897 128.563C585.008 129.524 585.921 130.693 586.584 132.004L585.643 132.485ZM536.26 131.659L535.663 130.801C536.833 130.003 538.045 129.266 539.292 128.595L539.784 129.515C538.583 130.179 537.417 130.905 536.291 131.69L536.26 131.659ZM546.028 128.94C545.63 128.375 545.243 127.8 544.877 127.204L543.518 127.737L543.12 126.775L544.323 126.294C544.135 125.98 543.946 125.666 543.769 125.353L544.678 124.84C544.888 125.206 545.097 125.572 545.316 125.886C545.902 125.677 546.498 125.478 547.105 125.29L547.408 126.336C546.896 126.493 546.362 126.66 545.881 126.838C546.205 127.35 546.54 127.883 546.927 128.333L546.028 128.94ZM579.839 127.141C578.827 126.637 577.778 126.21 576.701 125.865L576.011 125.645L576.314 124.6L577.026 124.83C578.146 125.187 579.237 125.631 580.289 126.158L579.839 127.141ZM551.413 125.269L551.194 124.223C552.543 123.92 553.944 123.669 555.377 123.47L555.534 124.516C554.154 124.736 552.784 124.997 551.445 125.3L551.413 125.269ZM572.016 124.704C570.709 124.474 569.328 124.296 567.917 124.171L568 123.125C569.454 123.251 570.866 123.428 572.183 123.669L572.016 124.704ZM559.623 124.098L559.55 123.052C560.794 122.979 562.039 122.937 563.273 122.937H563.786V123.983H563.284C562.102 124.014 560.868 124.045 559.655 124.129L559.623 124.098ZM541.949 121.598C541.384 120.322 540.903 118.994 540.432 117.645L541.478 117.321C541.917 118.638 542.409 119.935 542.953 121.18L541.949 121.598ZM539.303 113.566C538.989 112.217 538.728 110.816 538.529 109.383L539.575 109.237C539.773 110.617 540.025 111.987 540.328 113.315L539.303 113.566ZM538.132 105.2C538.079 104.258 538.048 103.296 538.048 102.334C538.048 101.884 538.048 101.424 538.048 100.975H539.094C539.094 101.424 539.094 101.863 539.094 102.313C539.094 103.254 539.094 104.206 539.167 105.116L538.132 105.2ZM539.376 96.8331L538.33 96.7285C538.477 95.348 538.675 93.9362 538.916 92.5452L539.962 92.723C539.679 94.114 539.481 95.4526 539.345 96.854L539.376 96.8331ZM540.809 88.6652L539.763 88.4143C540.098 87.0652 540.485 85.7056 540.913 84.346L541.959 84.6702C541.489 86.0402 541.102 87.3684 540.777 88.6862L540.809 88.6652ZM543.319 80.7484L542.346 80.3719C542.859 79.0646 543.392 77.7573 544.03 76.4919L544.971 76.9521C544.344 78.2071 543.789 79.483 543.287 80.8111L543.319 80.7484ZM546.916 73.2917L546.007 72.7583C546.718 71.5556 547.481 70.3529 548.276 69.2025L549.134 69.7987C548.318 70.9491 547.575 72.1204 546.885 73.3126L546.916 73.2917ZM551.633 66.4834L550.817 65.8245C551.696 64.7787 552.637 63.6702 553.61 62.6871L554.363 63.4087C553.38 64.3918 552.459 65.4376 551.602 66.5043L551.633 66.4834ZM557.322 60.4595L556.622 59.6856C557.668 58.7548 558.713 57.8345 559.832 56.9455L560.481 57.7717C559.362 58.6607 558.295 59.5705 557.291 60.4804L557.322 60.4595ZM563.817 55.2931L563.221 54.4251C564.361 53.6407 565.553 52.8668 566.766 52.1348L567.299 53.0237C566.086 53.7662 564.957 54.5297 563.786 55.3141L563.817 55.2931ZM570.918 50.9739L570.426 50.0536C571.661 49.3947 572.936 48.7672 574.212 48.1816L574.652 49.1333C573.323 49.7294 572.1 50.3569 570.887 50.9948L570.918 50.9739ZM578.479 47.5018L578.092 46.5187C579.41 46.0063 580.738 45.4729 582.056 45.0859L582.391 46.1318C581.062 46.5292 579.745 47.0102 578.448 47.5227L578.479 47.5018Z" fill="#263238"/>
<path d="M586.543 44.857L586.281 43.8112C587.578 43.4765 588.373 43.3301 588.373 43.3301L588.561 44.3759C588.561 44.3759 587.808 44.5328 586.543 44.857Z" fill="#263238"/>
<path d="M605.033 38.0994C602.366 29.8374 584.504 32.8075 587.986 43.6109C591.469 54.4142 607.7 46.3718 605.033 38.0994Z" fill="#263238"/>
<path d="M578.27 34.7951C578.406 31.1661 583.447 28.3738 590.579 29.6602C597.712 30.9465 604.415 35.7573 604.415 35.7573C604.415 35.7573 597.377 40.0242 590.171 40.8086C582.966 41.593 578.134 38.4137 578.27 34.7951Z" fill="#EBEBEB"/>
<path d="M604.416 35.7366C600.714 35.7366 597.022 35.6321 593.33 35.517C589.638 35.402 585.936 35.2137 582.245 34.9209C585.947 34.9209 589.649 35.015 593.341 35.1301C597.032 35.2451 600.735 35.4333 604.416 35.7366Z" fill="#263238"/>
<path d="M585.434 31.5635C587.536 32.5689 589.518 33.8073 591.343 35.2552C590.291 34.7617 589.271 34.2028 588.289 33.5819C587.299 32.9653 586.346 32.2913 585.434 31.5635Z" fill="#263238"/>
<path d="M595.129 35.3916C593.237 36.9249 591.186 38.2502 589.011 39.3448C590.912 37.8096 592.974 36.4842 595.16 35.3916H595.129Z" fill="#263238"/>
<path d="M596.206 33.3516C597.262 33.8583 598.185 34.6029 598.904 35.5269C598.377 35.2778 597.882 34.9652 597.43 34.5961C596.976 34.2292 596.565 33.8117 596.206 33.3516Z" fill="#263238"/>
<path d="M585.068 56.2871C587.296 59.1527 593.017 58.4624 598.047 53.2543C603.078 48.0461 605.744 40.2129 605.744 40.2129C605.744 40.2129 597.503 40.8404 591.218 44.3962C584.933 47.952 582.83 53.4111 585.068 56.2871Z" fill="#EBEBEB"/>
<path d="M605.744 40.2129C602.732 42.3045 599.804 44.6263 596.865 46.8748C593.926 49.1233 591.05 51.445 588.237 53.8399C591.249 51.7483 594.177 49.437 597.106 47.1885C600.034 44.94 602.889 42.6183 605.744 40.2129Z" fill="#263238"/>
<path d="M592.755 54.6659C593.314 53.65 593.813 52.6024 594.251 51.5284C594.696 50.4514 595.073 49.3477 595.38 48.2236C594.819 49.2387 594.32 50.2864 593.884 51.3611C593.444 52.4397 593.067 53.5432 592.755 54.6659Z" fill="#263238"/>
<path d="M598.423 45.9233C595.976 45.7925 593.522 45.9222 591.103 46.3103C592.322 46.3835 593.544 46.3835 594.763 46.3103C595.99 46.2505 597.212 46.1213 598.423 45.9233Z" fill="#263238"/>
<path d="M600.442 46.9577C600.722 46.4412 600.939 45.8936 601.091 45.3262C601.245 44.7629 601.336 44.1841 601.362 43.6006C600.806 44.6359 600.492 45.7836 600.442 46.9577Z" fill="#263238"/>
<path d="M605.033 38.1001C604.443 38.2918 603.808 38.304 603.211 38.1351C602.613 37.9662 602.079 37.6237 601.676 37.1511C601.274 36.6785 601.02 36.0969 600.948 35.4801C600.876 34.8633 600.989 34.239 601.271 33.6863C601.554 33.1335 601.995 32.6771 602.538 32.375C603.08 32.0728 603.7 31.9384 604.319 31.9889C604.938 32.0393 605.528 32.2723 606.015 32.6583C606.501 33.0443 606.862 33.566 607.052 34.1573C607.305 34.9478 607.235 35.8067 606.857 36.5457C606.479 37.2847 605.823 37.8436 605.033 38.1001Z" fill="#455A64"/>
<path d="M606.957 44.0718C606.367 44.2628 605.733 44.2745 605.136 44.1054C604.539 43.9363 604.006 43.594 603.603 43.1219C603.201 42.6497 602.947 42.0687 602.875 41.4526C602.803 40.8364 602.915 40.2125 603.197 39.66C603.479 39.1074 603.919 38.6509 604.46 38.3481C605.002 38.0454 605.621 37.91 606.239 37.9591C606.858 38.0081 607.448 38.2395 607.935 38.6239C608.422 39.0082 608.784 39.5284 608.976 40.1185C609.103 40.5106 609.151 40.924 609.119 41.3349C609.086 41.7458 608.973 42.1463 608.785 42.5134C608.598 42.8805 608.34 43.2071 608.026 43.4745C607.713 43.7419 607.349 43.9448 606.957 44.0718Z" fill="#455A64"/>
<path d="M264.084 41.4055C263.583 46.2091 261.757 50.779 258.81 54.6052C255.863 58.4314 251.91 61.3633 247.394 63.0738C242.877 64.7844 237.974 65.2062 233.231 64.2923C228.489 63.3784 224.094 61.1646 220.536 57.8981L207.495 59.812L214.021 48.538C212.529 44.8697 211.892 40.9095 212.159 36.9582C212.426 33.007 213.591 29.1686 215.563 25.7347C217.536 22.3007 220.266 19.3615 223.544 17.1403C226.823 14.9191 230.565 13.4744 234.486 12.9158C238.406 12.3572 242.403 12.6995 246.171 13.9167C249.94 15.1338 253.382 17.1938 256.235 19.9402C259.088 22.6866 261.278 26.0471 262.638 29.7665C263.998 33.4859 264.493 37.4664 264.084 41.4055Z" fill="white"/>
<path d="M264.085 41.4057C263.594 46.2068 261.784 50.7785 258.856 54.6144C257.425 56.5544 255.699 58.2588 253.742 59.6657C251.827 61.1253 249.714 62.305 247.467 63.1692C245.218 64.0547 242.855 64.618 240.449 64.8425C239.246 64.9505 238.037 64.9749 236.831 64.9157C235.62 64.8846 234.414 64.7587 233.223 64.5392C228.416 63.6549 223.951 61.4495 220.328 58.1702L220.631 58.2643L207.61 60.2618L206.659 60.4082L207.14 59.5716L213.624 48.2767V48.7264C212.094 44.9903 211.443 40.9525 211.723 36.9249C212.002 32.8973 213.203 28.9879 215.234 25.4988C217.263 22.0206 220.052 19.046 223.392 16.7975C226.727 14.5789 230.521 13.1441 234.489 12.6007C238.457 12.0574 242.497 12.4195 246.306 13.6601C250.074 14.942 253.508 17.0502 256.356 19.8304C259.198 22.6037 261.371 25.9878 262.71 29.7261C264.049 33.4644 264.519 37.4586 264.085 41.4057ZM264.085 41.4057C264.507 37.4781 264.022 33.5059 262.665 29.7958C261.309 26.0857 259.118 22.7369 256.262 20.0081C253.406 17.2792 249.96 15.2432 246.192 14.0573C242.424 12.8714 238.434 12.5673 234.53 13.1685C230.665 13.7406 226.983 15.1934 223.768 17.4146C220.581 19.6532 217.919 22.558 215.966 25.9275C214.044 29.3046 212.91 33.0731 212.651 36.9505C212.397 40.8541 213.026 44.7649 214.492 48.3917L214.586 48.6218L214.46 48.8414L207.893 60.0945L207.433 59.4042L220.484 57.574H220.662L220.788 57.6891C224.277 60.9364 228.6 63.1489 233.275 64.079C234.44 64.3164 235.622 64.4598 236.81 64.5078C237.997 64.5915 239.189 64.5915 240.376 64.5078C242.757 64.316 245.1 63.7987 247.341 62.9705C249.587 62.1529 251.701 61.0113 253.616 59.582C255.565 58.1865 257.293 56.5047 258.741 54.5935C261.707 50.7761 263.557 46.2111 264.085 41.4057Z" fill="#263238"/>
<path d="M225.421 50.8498C225.4 50.5035 225.452 50.1569 225.571 49.8313C225.691 49.5057 225.876 49.2081 226.115 48.9571C226.354 48.706 226.643 48.5068 226.962 48.3719C227.282 48.2369 227.626 48.169 227.972 48.1725C228.682 48.1725 229.363 48.4546 229.865 48.9566C230.368 49.4587 230.65 50.1397 230.65 50.8498C230.65 51.5598 230.368 52.2408 229.865 52.7429C229.363 53.245 228.682 53.5271 227.972 53.5271C227.626 53.5305 227.282 53.4627 226.962 53.3277C226.643 53.1927 226.354 52.9935 226.115 52.7425C225.876 52.4914 225.691 52.1939 225.571 51.8683C225.452 51.5427 225.4 51.196 225.421 50.8498ZM226.466 44.669L225.86 23.9199H230.043L229.437 44.669H226.466Z" fill="#0B56A4"/>
<path d="M235.367 50.8498C235.347 50.5044 235.398 50.1586 235.516 49.8338C235.635 49.5089 235.82 49.2118 236.058 48.9609C236.296 48.71 236.583 48.5106 236.901 48.375C237.219 48.2394 237.562 48.1705 237.908 48.1725C238.618 48.1725 239.299 48.4546 239.801 48.9566C240.303 49.4587 240.585 50.1397 240.585 50.8498C240.585 51.5598 240.303 52.2408 239.801 52.7429C239.299 53.245 238.618 53.5271 237.908 53.5271C237.562 53.5291 237.219 53.4602 236.901 53.3246C236.583 53.1889 236.296 52.9895 236.058 52.7386C235.82 52.4877 235.635 52.1907 235.516 51.8658C235.398 51.5409 235.347 51.1951 235.367 50.8498ZM236.412 44.669L235.837 23.9199H240.021L239.414 44.669H236.412Z" fill="#0B56A4"/>
<path d="M245.302 50.8498C245.282 50.5035 245.333 50.1569 245.452 49.8313C245.572 49.5057 245.757 49.2081 245.996 48.9571C246.236 48.706 246.524 48.5068 246.843 48.3719C247.163 48.2369 247.507 48.169 247.854 48.1725C248.564 48.1725 249.245 48.4546 249.747 48.9566C250.249 49.4587 250.531 50.1397 250.531 50.8498C250.531 51.5598 250.249 52.2408 249.747 52.7429C249.245 53.245 248.564 53.5271 247.854 53.5271C247.507 53.5305 247.163 53.4627 246.843 53.3277C246.524 53.1927 246.236 52.9935 245.996 52.7425C245.757 52.4914 245.572 52.1939 245.452 51.8683C245.333 51.5427 245.282 51.196 245.302 50.8498ZM246.348 44.669L245.741 23.9199H249.924L249.328 44.669H246.348Z" fill="#0B56A4"/>
</g>
<defs>
<filter id="filter0_d_689_1176" x="0" y="0" width="648" height="427.354" filterUnits="userSpaceOnUse" color-interpolation-filters="sRGB">
<feFlood flood-opacity="0" result="BackgroundImageFix"/>
<feColorMatrix in="SourceAlpha" type="matrix" values="0 0 0 0 0 0 0 0 0 0 0 0 0 0 0 0 0 0 127 0" result="hardAlpha"/>
<feOffset dy="4"/>
<feGaussianBlur stdDeviation="2"/>
<feComposite in2="hardAlpha" operator="out"/>
<feColorMatrix type="matrix" values="0 0 0 0 0 0 0 0 0 0 0 0 0 0 0 0 0 0 0.25 0"/>
<feBlend mode="normal" in2="BackgroundImageFix" result="effect1_dropShadow_689_1176"/>
<feBlend mode="normal" in="SourceGraphic" in2="effect1_dropShadow_689_1176" result="shape"/>
</filter>
</defs>
</svg>
