<svg width="32" height="32" viewBox="0 0 32 32" fill="none" xmlns="http://www.w3.org/2000/svg">
<path d="M21.3334 22.6664V25.3331H2.66669V22.6664C2.66669 22.6664 2.66669 17.3331 12 17.3331C21.3334 17.3331 21.3334 22.6664 21.3334 22.6664ZM16.6667 9.99972C16.6667 9.07674 16.393 8.17449 15.8802 7.40706C15.3674 6.63963 14.6386 6.04149 13.7859 5.68829C12.9332 5.33508 11.9948 5.24266 11.0896 5.42273C10.1844 5.60279 9.35283 6.04725 8.70019 6.69989C8.04754 7.35254 7.60309 8.18406 7.42302 9.0893C7.24296 9.99455 7.33537 10.9329 7.68858 11.7856C8.04179 12.6383 8.63993 13.3671 9.40736 13.8799C10.1748 14.3927 11.077 14.6664 12 14.6664C13.2377 14.6664 14.4247 14.1747 15.2999 13.2996C16.175 12.4244 16.6667 11.2374 16.6667 9.99972ZM21.2534 17.3331C22.073 17.9674 22.7437 18.7736 23.2183 19.6951C23.6928 20.6165 23.9596 21.6307 24 22.6664V25.3331H29.3334V22.6664C29.3334 22.6664 29.3334 17.8264 21.2534 17.3331ZM20 5.33306C19.0824 5.32879 18.1851 5.6031 17.4267 6.11972C18.2366 7.25137 18.6721 8.6081 18.6721 9.99972C18.6721 11.3913 18.2366 12.7481 17.4267 13.8797C18.1851 14.3963 19.0824 14.6707 20 14.6664C21.2377 14.6664 22.4247 14.1747 23.2999 13.2996C24.175 12.4244 24.6667 11.2374 24.6667 9.99972C24.6667 8.76205 24.175 7.57506 23.2999 6.69989C22.4247 5.82472 21.2377 5.33306 20 5.33306Z" fill="#282526"/>
</svg>
