<svg width="24" height="24" viewBox="0 0 24 24" fill="none" xmlns="http://www.w3.org/2000/svg">
<path d="M2.5 12C2.5 11.8011 2.57902 11.6103 2.71967 11.4697C2.86032 11.329 3.05109 11.25 3.25 11.25H4.75C4.94891 11.25 5.13968 11.329 5.28033 11.4697C5.42098 11.6103 5.5 11.8011 5.5 12C5.5 12.1989 5.42098 12.3897 5.28033 12.5303C5.13968 12.671 4.94891 12.75 4.75 12.75H3.25C3.05109 12.75 2.86032 12.671 2.71967 12.5303C2.57902 12.3897 2.5 12.1989 2.5 12ZM6.5 12C6.5 11.8011 6.57902 11.6103 6.71967 11.4697C6.86032 11.329 7.05109 11.25 7.25 11.25H8.75C8.94891 11.25 9.13968 11.329 9.28033 11.4697C9.42098 11.6103 9.5 11.8011 9.5 12C9.5 12.1989 9.42098 12.3897 9.28033 12.5303C9.13968 12.671 8.94891 12.75 8.75 12.75H7.25C7.05109 12.75 6.86032 12.671 6.71967 12.5303C6.57902 12.3897 6.5 12.1989 6.5 12ZM10.5 12C10.5 11.8011 10.579 11.6103 10.7197 11.4697C10.8603 11.329 11.0511 11.25 11.25 11.25H12.75C12.9489 11.25 13.1397 11.329 13.2803 11.4697C13.421 11.6103 13.5 11.8011 13.5 12C13.5 12.1989 13.421 12.3897 13.2803 12.5303C13.1397 12.671 12.9489 12.75 12.75 12.75H11.25C11.0511 12.75 10.8603 12.671 10.7197 12.5303C10.579 12.3897 10.5 12.1989 10.5 12ZM14.5 12C14.5 11.8011 14.579 11.6103 14.7197 11.4697C14.8603 11.329 15.0511 11.25 15.25 11.25H16.75C16.9489 11.25 17.1397 11.329 17.2803 11.4697C17.421 11.6103 17.5 11.8011 17.5 12C17.5 12.1989 17.421 12.3897 17.2803 12.5303C17.1397 12.671 16.9489 12.75 16.75 12.75H15.25C15.0511 12.75 14.8603 12.671 14.7197 12.5303C14.579 12.3897 14.5 12.1989 14.5 12ZM18.5 12C18.5 11.8011 18.579 11.6103 18.7197 11.4697C18.8603 11.329 19.0511 11.25 19.25 11.25H20.75C20.9489 11.25 21.1397 11.329 21.2803 11.4697C21.421 11.6103 21.5 11.8011 21.5 12C21.5 12.1989 21.421 12.3897 21.2803 12.5303C21.1397 12.671 20.9489 12.75 20.75 12.75H19.25C19.0511 12.75 18.8603 12.671 18.7197 12.5303C18.579 12.3897 18.5 12.1989 18.5 12ZM5 2C4.73478 2 4.48043 2.10536 4.29289 2.29289C4.10536 2.48043 4 2.73478 4 3V7C4 7.53043 4.21071 8.03914 4.58579 8.41421C4.96086 8.78929 5.46957 9 6 9H18C18.5304 9 19.0391 8.78929 19.4142 8.41421C19.7893 8.03914 20 7.53043 20 7V3C20 2.73478 19.8946 2.48043 19.7071 2.29289C19.5196 2.10536 19.2652 2 19 2H5ZM19 22C19.2652 22 19.5196 21.8946 19.7071 21.7071C19.8946 21.5196 20 21.2652 20 21V17C20 16.4696 19.7893 15.9609 19.4142 15.5858C19.0391 15.2107 18.5304 15 18 15H6C5.46957 15 4.96086 15.2107 4.58579 15.5858C4.21071 15.9609 4 16.4696 4 17V21C4 21.2652 4.10536 21.5196 4.29289 21.7071C4.48043 21.8946 4.73478 22 5 22H19Z" fill="#282526"/>
</svg>
